<svg width="520" height="520" viewBox="0 0 520 520" fill="none" xmlns="http://www.w3.org/2000/svg">
<g clip-path="url(#clip0_171_949)">
<path d="M260.076 519.831C403.6 519.831 519.95 403.482 519.95 259.958C519.95 116.433 403.6 0.0839844 260.076 0.0839844C116.552 0.0839844 0.202148 116.433 0.202148 259.958C0.202148 403.482 116.552 519.831 260.076 519.831Z" fill="#13AA52"/>
<path d="M329.541 228.204C313.126 155.759 274.333 131.939 270.156 122.839C265.588 116.418 260.959 104.998 260.959 104.998C260.883 104.805 260.761 104.465 260.619 104.135C260.147 110.555 259.903 113.032 253.833 119.509C244.433 126.858 196.204 167.327 192.28 249.634C188.621 326.398 247.732 372.14 255.726 377.972L256.634 378.616V378.56C256.685 378.946 259.172 396.833 260.918 415.785H267.182C268.651 402.388 270.854 389.082 273.78 375.926L274.288 375.596C277.863 373.032 281.273 370.243 284.495 367.247L284.86 366.917C301.853 351.218 332.404 314.907 332.104 257.014C332.041 247.356 331.184 237.721 329.541 228.204ZM260.253 334.631C260.253 334.631 260.253 226.966 263.806 226.986C266.578 226.986 270.166 365.861 270.166 365.861C265.233 365.267 260.253 343.005 260.253 334.631Z" fill="white"/>
</g>
<defs>
<clipPath id="clip0_171_949">
<rect width="519.747" height="519.747" fill="white"/>
</clipPath>
</defs>
</svg>
