<svg width="155" height="117" viewBox="0 0 155 117" fill="none" xmlns="http://www.w3.org/2000/svg">
<path d="M78.4065 0.113281V35.0109L55.1792 28.7792L78.4065 0.113281Z" fill="url(#paint0_linear_79_22)"/>
<path d="M78.2932 0V34.8976L101.521 28.6659L78.2932 0Z" fill="url(#paint1_linear_79_22)"/>
<path d="M23.3406 67.4158L77.16 81.9187V116.136L0 95.6284L23.3406 67.4158Z" fill="url(#paint2_linear_79_22)"/>
<path d="M131.659 67.5291L77.16 81.9186V116.023L155 95.7417L131.659 67.5291Z" fill="url(#paint3_linear_79_22)"/>
<path d="M50.6472 33.4246L77.7269 40.9026V75.5736L27.3066 61.8638L50.6472 33.4246Z" fill="url(#paint4_linear_79_22)"/>
<path d="M104.693 33.5381L77.6132 41.0161V75.6871L128.033 61.9774L104.693 33.5381Z" fill="url(#paint5_linear_79_22)"/>
<defs>
<linearGradient id="paint0_linear_79_22" x1="55.6147" y1="17.6171" x2="78.4065" y2="17.6171" gradientUnits="userSpaceOnUse">
<stop stop-color="#222E50"/>
<stop offset="0.489449" stop-color="#007991"/>
<stop offset="1" stop-color="#439A86"/>
</linearGradient>
<linearGradient id="paint1_linear_79_22" x1="101.085" y1="17.5038" x2="78.2932" y2="17.5038" gradientUnits="userSpaceOnUse">
<stop stop-color="#222E50"/>
<stop offset="0.489449" stop-color="#007991"/>
<stop offset="1" stop-color="#439A86"/>
</linearGradient>
<linearGradient id="paint2_linear_79_22" x1="1.44675" y1="91.853" x2="77.16" y2="91.853" gradientUnits="userSpaceOnUse">
<stop stop-color="#222E50"/>
<stop offset="0.489449" stop-color="#007991"/>
<stop offset="1" stop-color="#439A86"/>
</linearGradient>
<linearGradient id="paint3_linear_79_22" x1="153.54" y1="91.8526" x2="77.16" y2="91.8526" gradientUnits="userSpaceOnUse">
<stop stop-color="#222E50"/>
<stop offset="0.489449" stop-color="#007991"/>
<stop offset="1" stop-color="#439A86"/>
</linearGradient>
<linearGradient id="paint4_linear_79_22" x1="28.252" y1="54.5656" x2="77.7269" y2="54.5656" gradientUnits="userSpaceOnUse">
<stop stop-color="#222E50"/>
<stop offset="0.489449" stop-color="#007991"/>
<stop offset="1" stop-color="#439A86"/>
</linearGradient>
<linearGradient id="paint5_linear_79_22" x1="127.088" y1="54.6791" x2="77.6132" y2="54.6791" gradientUnits="userSpaceOnUse">
<stop stop-color="#222E50"/>
<stop offset="0.489449" stop-color="#007991"/>
<stop offset="1" stop-color="#439A86"/>
</linearGradient>
</defs>
</svg>
