<svg width="150" height="130" viewBox="0 0 150 130" fill="none" xmlns="http://www.w3.org/2000/svg">
<g clip-path="url(#clip0_286_44)">
<path d="M75.8774 0.125977V38.9011L53.3994 31.977L75.8774 0.125977Z" fill="url(#paint0_linear_286_44)"/>
<path d="M75.7676 0V38.7751L98.2461 31.851L75.7676 0Z" fill="url(#paint1_linear_286_44)"/>
<path d="M22.5877 74.9062L74.671 91.0206V129.04L0 106.254L22.5877 74.9062Z" fill="url(#paint2_linear_286_44)"/>
<path d="M127.412 75.0322L74.6709 91.0206V128.914L150 106.38L127.412 75.0322Z" fill="url(#paint3_linear_286_44)"/>
<path d="M49.0135 37.1387L75.2196 45.4476V83.9709L26.4258 68.7378L49.0135 37.1387Z" fill="url(#paint4_linear_286_44)"/>
<path d="M101.316 37.2646L75.1094 45.5735V84.0969L123.903 68.8639L101.316 37.2646Z" fill="url(#paint5_linear_286_44)"/>
</g>
<defs>
<linearGradient id="paint0_linear_286_44" x1="53.8209" y1="19.5747" x2="75.8775" y2="19.5747" gradientUnits="userSpaceOnUse">
<stop stop-color="#222E50"/>
<stop offset="0.489449" stop-color="#007991"/>
<stop offset="1" stop-color="#439A86"/>
</linearGradient>
<linearGradient id="paint1_linear_286_44" x1="97.8242" y1="19.4487" x2="75.7676" y2="19.4487" gradientUnits="userSpaceOnUse">
<stop stop-color="#222E50"/>
<stop offset="0.489449" stop-color="#007991"/>
<stop offset="1" stop-color="#439A86"/>
</linearGradient>
<linearGradient id="paint2_linear_286_44" x1="1.40008" y1="102.059" x2="74.671" y2="102.059" gradientUnits="userSpaceOnUse">
<stop stop-color="#222E50"/>
<stop offset="0.489449" stop-color="#007991"/>
<stop offset="1" stop-color="#439A86"/>
</linearGradient>
<linearGradient id="paint3_linear_286_44" x1="148.587" y1="102.058" x2="74.6709" y2="102.058" gradientUnits="userSpaceOnUse">
<stop stop-color="#222E50"/>
<stop offset="0.489449" stop-color="#007991"/>
<stop offset="1" stop-color="#439A86"/>
</linearGradient>
<linearGradient id="paint4_linear_286_44" x1="27.3407" y1="60.6287" x2="75.2196" y2="60.6287" gradientUnits="userSpaceOnUse">
<stop stop-color="#222E50"/>
<stop offset="0.489449" stop-color="#007991"/>
<stop offset="1" stop-color="#439A86"/>
</linearGradient>
<linearGradient id="paint5_linear_286_44" x1="122.988" y1="60.7547" x2="75.1094" y2="60.7547" gradientUnits="userSpaceOnUse">
<stop stop-color="#222E50"/>
<stop offset="0.489449" stop-color="#007991"/>
<stop offset="1" stop-color="#439A86"/>
</linearGradient>
<clipPath id="clip0_286_44">
<rect width="150" height="130" fill="white"/>
</clipPath>
</defs>
</svg>
