<svg width="400" height="109" viewBox="0 0 400 109" fill="none" xmlns="http://www.w3.org/2000/svg">
<rect x="11" width="388.526" height="108.818" rx="12" fill="white"/>
<path d="M87.8027 16.3174V39.2442L72.543 35.1502L87.8027 16.3174Z" fill="url(#paint0_linear_245_131)"/>
<path d="M87.7295 16.2422V39.169L102.989 35.075L87.7295 16.2422Z" fill="url(#paint1_linear_245_131)"/>
<path d="M51.6252 60.5332L86.9832 70.0612V92.5415L36.291 79.0682L51.6252 60.5332Z" fill="url(#paint2_linear_245_131)"/>
<path d="M122.788 60.6084L86.9833 70.062V92.4678L138.122 79.1434L122.788 60.6084Z" fill="url(#paint3_linear_245_131)"/>
<path d="M69.5656 38.2002L87.3563 43.1131V65.8911L54.2314 56.8841L69.5656 38.2002Z" fill="url(#paint4_linear_245_131)"/>
<path d="M105.073 38.2744L87.2824 43.1873V65.9653L120.407 56.9583L105.073 38.2744Z" fill="url(#paint5_linear_245_131)"/>
<path d="M161.654 77.617C161.541 77.5038 161.484 77.2021 161.484 76.7117C161.484 76.2213 161.541 75.9761 161.654 75.9761C161.993 75.9761 162.446 75.9195 163.012 75.8063C163.578 75.6555 164.106 75.4857 164.596 75.2971C165.124 75.1085 165.445 74.901 165.558 74.6747C165.822 74.2597 165.954 72.4868 165.954 69.3559V47.9674C165.954 46.8734 165.917 45.9115 165.841 45.0816C165.803 44.2517 165.709 43.5916 165.558 43.1012C165.483 42.8749 165.181 42.6674 164.653 42.4788C164.162 42.2902 163.616 42.1393 163.012 42.0261C162.446 41.9129 161.993 41.8564 161.654 41.8564C161.503 41.8564 161.428 41.63 161.428 41.1774C161.428 40.687 161.503 40.3663 161.654 40.2154C162.635 40.2532 163.672 40.2909 164.766 40.3286C165.898 40.3286 167.105 40.3286 168.387 40.3286L173.14 40.272H176.366C176.856 40.272 177.346 40.2909 177.837 40.3286C178.365 40.3663 178.874 40.4229 179.365 40.4984C180.873 40.7624 182.288 41.2717 183.608 42.0261C184.966 42.7428 186.06 43.7236 186.89 44.9684C187.758 46.2133 188.192 47.741 188.192 49.5517C188.192 50.872 187.758 52.1357 186.89 53.3428C186.023 54.5122 185.211 55.3232 184.457 55.7759C183.74 56.2285 183.118 56.5492 182.59 56.7378C182.288 56.8509 182.194 56.9641 182.307 57.0773C183.061 57.1904 183.91 57.5299 184.853 58.0958C185.796 58.6616 186.702 59.3972 187.569 60.3025C188.437 61.1701 189.153 62.1698 189.719 63.3014C190.323 64.4331 190.625 65.6214 190.625 66.8662C190.625 69.0164 190.021 70.8836 188.814 72.4679C187.645 74.0523 185.985 75.2782 183.835 76.1458C181.684 77.0135 179.157 77.4473 176.252 77.4473H168.501L161.654 77.617ZM174.612 56.3417C175.819 56.3417 176.875 56.2851 177.78 56.1719C179.327 56.0211 180.609 55.4929 181.628 54.5876C182.684 53.6446 183.212 52.3997 183.212 50.8531C183.212 48.2503 182.552 46.2321 181.232 44.7987C179.949 43.3275 178.025 42.5919 175.46 42.5919C173.687 42.5919 172.348 42.724 171.443 42.988C171.217 43.0258 171.103 43.1955 171.103 43.4973L170.877 49.2122V55.9456C170.877 56.2097 172.122 56.3417 174.612 56.3417ZM174.838 74.901C175.781 74.901 176.705 74.8256 177.61 74.6747C178.554 74.5238 179.666 74.222 180.949 73.7694C182.231 73.3544 183.269 72.6188 184.061 71.5626C184.853 70.4687 185.249 69.1107 185.249 67.4886C185.249 65.8665 184.891 64.3954 184.174 63.0751C183.457 61.7548 182.363 60.6986 180.892 59.9064C179.421 59.1143 177.516 58.7182 175.177 58.7182C174.762 58.7182 174.215 58.7371 173.536 58.7748C172.857 58.8125 172.046 58.8691 171.103 58.9445C170.952 59.3595 170.877 59.9819 170.877 60.8118V69.0729C170.877 71.9398 171.179 73.6185 171.782 74.1089C172.386 74.637 173.404 74.901 174.838 74.901ZM193.963 77.617C193.812 77.4661 193.737 77.1455 193.737 76.6551C193.737 76.2024 193.812 75.9761 193.963 75.9761C194.265 75.9761 194.68 75.9195 195.208 75.8063C195.736 75.6932 196.226 75.5423 196.679 75.3537C197.132 75.1651 197.377 74.9953 197.415 74.8444C197.566 74.3163 197.66 73.7128 197.698 73.0338C197.773 72.3548 197.811 71.638 197.811 70.8836V46.383C197.811 45.1005 197.698 43.8934 197.471 42.7617C197.32 42.1581 196.358 41.8564 194.585 41.8564H194.076C193.85 41.8564 193.737 41.6489 193.737 41.2339C193.737 40.6304 193.85 40.3286 194.076 40.3286C196.34 40.0646 198.018 39.7628 199.112 39.4233C200.206 39.0838 200.96 38.782 201.375 38.5179L201.941 38.1784H202.054C202.205 38.1784 202.356 38.2916 202.507 38.5179C202.658 38.7066 202.752 38.8952 202.79 39.0838C202.375 40.3286 202.168 41.9695 202.168 44.0065V69.8085C202.168 70.9025 202.205 71.8644 202.281 72.6943C202.356 73.5242 202.469 74.2409 202.62 74.8444C202.696 74.9953 202.96 75.1651 203.412 75.3537C203.865 75.5423 204.355 75.6932 204.884 75.8063C205.412 75.9195 205.789 75.9761 206.015 75.9761C206.128 75.9761 206.204 76.2024 206.242 76.6551C206.279 77.1078 206.26 77.4284 206.185 77.617L200.131 77.3341L193.963 77.617ZM221.576 77.8433C219.312 77.8433 217.238 77.2775 215.352 76.1458C213.465 75.0142 211.957 73.4864 210.825 71.5626C209.731 69.6388 209.184 67.5263 209.184 65.2253C209.184 62.8865 209.712 60.774 210.768 58.8879C211.862 57.0018 213.333 55.5118 215.182 54.4179C217.03 53.2862 219.124 52.7204 221.463 52.7204C223.726 52.7204 225.782 53.2862 227.63 54.4179C229.516 55.5495 231.006 57.0584 232.1 58.9445C233.232 60.8306 233.798 62.9242 233.798 65.2253C233.798 67.5263 233.251 69.6388 232.157 71.5626C231.063 73.4864 229.592 75.0142 227.743 76.1458C225.933 77.2775 223.877 77.8433 221.576 77.8433ZM222.085 75.6366C223.443 75.6366 224.631 75.2028 225.65 74.3352C226.668 73.4676 227.46 72.2982 228.026 70.827C228.63 69.3559 228.932 67.7527 228.932 66.0174C228.932 63.9804 228.554 62.132 227.8 60.4723C227.045 58.7748 226.046 57.4356 224.801 56.4549C223.594 55.4364 222.274 54.9271 220.84 54.9271C219.52 54.9271 218.332 55.3609 217.275 56.2285C216.257 57.0584 215.465 58.1901 214.899 59.6235C214.333 61.0192 214.05 62.6036 214.05 64.3765C214.05 66.4135 214.408 68.2996 215.125 70.0349C215.88 71.7324 216.86 73.0904 218.068 74.1089C219.312 75.1273 220.651 75.6366 222.085 75.6366ZM250.433 77.8433C248.17 77.8433 246.095 77.2775 244.209 76.1458C242.323 75.0142 240.814 73.4864 239.682 71.5626C238.588 69.6388 238.041 67.5263 238.041 65.2253C238.041 62.8865 238.57 60.774 239.626 58.8879C240.72 57.0018 242.191 55.5118 244.039 54.4179C245.888 53.2862 247.981 52.7204 250.32 52.7204C252.583 52.7204 254.639 53.2862 256.488 54.4179C258.374 55.5495 259.864 57.0584 260.958 58.9445C262.089 60.8306 262.655 62.9242 262.655 65.2253C262.655 67.5263 262.108 69.6388 261.014 71.5626C259.92 73.4864 258.449 75.0142 256.601 76.1458C254.79 77.2775 252.734 77.8433 250.433 77.8433ZM250.942 75.6366C252.3 75.6366 253.489 75.2028 254.507 74.3352C255.526 73.4676 256.318 72.2982 256.884 70.827C257.487 69.3559 257.789 67.7527 257.789 66.0174C257.789 63.9804 257.412 62.132 256.657 60.4723C255.903 58.7748 254.903 57.4356 253.658 56.4549C252.451 55.4364 251.131 54.9271 249.698 54.9271C248.377 54.9271 247.189 55.3609 246.133 56.2285C245.114 57.0584 244.322 58.1901 243.756 59.6235C243.191 61.0192 242.908 62.6036 242.908 64.3765C242.908 66.4135 243.266 68.2996 243.983 70.0349C244.737 71.7324 245.718 73.0904 246.925 74.1089C248.17 75.1273 249.509 75.6366 250.942 75.6366ZM266.559 77.617C266.409 77.4661 266.333 77.1455 266.333 76.6551C266.333 76.2024 266.409 75.9761 266.559 75.9761C266.861 75.9761 267.276 75.9195 267.804 75.8063C268.332 75.6932 268.823 75.5423 269.275 75.3537C269.728 75.1651 269.973 74.9953 270.011 74.8444C270.162 74.3163 270.256 73.7128 270.294 73.0338C270.369 72.3548 270.407 71.638 270.407 70.8836V60.1894C270.407 58.7559 270.143 57.7374 269.615 57.1339C269.238 56.6812 268.785 56.3794 268.257 56.2285C267.767 56.0776 267.314 56.0022 266.899 56.0022C266.522 55.9645 266.333 55.9079 266.333 55.8324C266.333 54.9271 266.446 54.4556 266.673 54.4179C268.672 54.1161 270.237 53.852 271.369 53.6257C272.538 53.3994 273.425 53.2107 274.028 53.0599L274.764 52.8901C274.915 52.8524 275.009 53.0033 275.047 53.3428C275.085 53.6446 275.085 53.8897 275.047 54.0784C274.971 54.6065 274.915 55.0591 274.877 55.4364C274.839 55.8136 274.821 56.1154 274.821 56.3417C274.821 56.4926 274.858 56.568 274.934 56.568C274.971 56.568 275.028 56.5303 275.103 56.4549C275.971 55.5495 277.14 54.7008 278.612 53.9086C280.121 53.0787 281.554 52.6638 282.912 52.6638C284.421 52.6638 285.666 53.0787 286.646 53.9086C287.665 54.7008 288.363 55.625 288.74 56.6812C291.607 54.0029 294.53 52.6638 297.51 52.6638C302.263 52.6638 304.64 56.2851 304.64 63.5278V69.8085C304.64 70.9025 304.678 71.8644 304.753 72.6943C304.829 73.5242 304.942 74.2409 305.093 74.8444C305.168 74.9953 305.432 75.1651 305.885 75.3537C306.337 75.5423 306.828 75.6932 307.356 75.8063C307.884 75.9195 308.261 75.9761 308.488 75.9761C308.601 75.9761 308.676 76.2024 308.714 76.6551C308.752 77.1078 308.733 77.4284 308.657 77.617L302.603 77.3341L296.435 77.617C296.285 77.4661 296.209 77.1455 296.209 76.6551C296.209 76.2024 296.285 75.9761 296.435 75.9761C296.737 75.9761 297.152 75.9195 297.68 75.8063C298.208 75.6932 298.699 75.5423 299.151 75.3537C299.604 75.1651 299.849 74.9953 299.887 74.8444C300.038 74.3163 300.132 73.7505 300.17 73.1469C300.245 72.5057 300.283 71.8644 300.283 71.2231V64.8292C300.283 59.02 298.378 56.1154 294.568 56.1154C293.663 56.1154 292.814 56.3228 292.022 56.7378C291.23 57.115 290.588 57.5488 290.098 58.0392C289.645 58.5296 289.419 58.9634 289.419 59.3406C289.532 60.0573 289.608 60.7929 289.645 61.5474C289.683 62.2641 289.702 63.0562 289.702 63.9239V70.3178C289.702 71.2608 289.74 72.1096 289.815 72.864C289.891 73.5807 290.004 74.2409 290.155 74.8444C290.23 74.9953 290.494 75.1651 290.947 75.3537C291.399 75.5423 291.89 75.6932 292.418 75.8063C292.946 75.9195 293.323 75.9761 293.55 75.9761C293.663 75.9761 293.738 76.2024 293.776 76.6551C293.814 77.1078 293.795 77.4284 293.719 77.617L287.665 77.3341L281.497 77.617C281.347 77.4661 281.271 77.1455 281.271 76.6551C281.271 76.2024 281.347 75.9761 281.497 75.9761C281.799 75.9761 282.214 75.9195 282.742 75.8063C283.27 75.6932 283.761 75.5423 284.213 75.3537C284.666 75.1651 284.911 74.9953 284.949 74.8444C285.1 74.3163 285.194 73.7128 285.232 73.0338C285.307 72.3548 285.345 71.638 285.345 70.8836V65.1121C285.345 59.1143 283.534 56.1154 279.913 56.1154C279.159 56.1154 278.385 56.3228 277.593 56.7378C276.801 57.115 276.122 57.6054 275.556 58.2089C275.028 58.7748 274.764 59.3217 274.764 59.8499V69.8085C274.764 70.9025 274.802 71.8644 274.877 72.6943C274.953 73.5242 275.066 74.2409 275.217 74.8444C275.292 74.9953 275.556 75.1651 276.009 75.3537C276.461 75.5423 276.952 75.6932 277.48 75.8063C278.008 75.9195 278.385 75.9761 278.612 75.9761C278.725 75.9761 278.8 76.2024 278.838 76.6551C278.876 77.1078 278.857 77.4284 278.781 77.617L272.727 77.3341L266.559 77.617ZM312.109 77.617C311.958 77.4661 311.883 77.1455 311.883 76.6551C311.883 76.2024 311.958 75.9761 312.109 75.9761C312.411 75.9761 312.826 75.9195 313.354 75.8063C313.882 75.6932 314.372 75.5423 314.825 75.3537C315.278 75.1651 315.523 74.9953 315.561 74.8444C315.711 74.3163 315.806 73.7128 315.843 73.0338C315.919 72.3548 315.957 71.638 315.957 70.8836V60.1894C315.957 58.7559 315.693 57.7374 315.164 57.1339C314.787 56.6435 314.335 56.3417 313.806 56.2285C313.278 56.0776 312.826 56.0022 312.448 56.0022C312.071 55.9645 311.883 55.9079 311.883 55.8324C311.883 54.9271 311.996 54.4556 312.222 54.4179C314.221 54.1161 315.749 53.8709 316.805 53.6823C317.862 53.4559 318.805 53.2485 319.635 53.0599L320.314 52.8901C320.464 52.8524 320.559 53.0033 320.596 53.3428C320.634 53.6823 320.634 53.9275 320.596 54.0784C320.521 54.8328 320.446 55.5495 320.37 56.2285C320.332 56.9075 320.314 57.5488 320.314 58.1524V69.8085C320.314 70.9025 320.351 71.8644 320.427 72.6943C320.502 73.5242 320.615 74.2409 320.766 74.8444C320.842 74.9953 321.106 75.1651 321.558 75.3537C322.011 75.5423 322.501 75.6932 323.03 75.8063C323.558 75.9195 323.935 75.9761 324.161 75.9761C324.274 75.9761 324.35 76.2024 324.388 76.6551C324.425 77.1078 324.406 77.4284 324.331 77.617L318.277 77.3341L312.109 77.617ZM317.711 46.7225C316.956 46.7225 316.296 46.4396 315.73 45.8738C315.164 45.3079 314.882 44.6478 314.882 43.8934C314.882 43.1012 315.164 42.4411 315.73 41.9129C316.296 41.3471 316.956 41.0642 317.711 41.0642C318.503 41.0642 319.163 41.3471 319.691 41.9129C320.257 42.4411 320.54 43.1012 320.54 43.8934C320.54 44.6478 320.257 45.3079 319.691 45.8738C319.163 46.4396 318.503 46.7225 317.711 46.7225ZM327.726 77.617C327.613 77.5038 327.537 77.2021 327.5 76.7117C327.5 76.2213 327.575 75.9761 327.726 75.9761C328.028 75.9761 328.424 75.9195 328.914 75.8063C329.405 75.6932 329.857 75.5423 330.272 75.3537C330.725 75.1651 330.97 74.9953 331.008 74.8444C331.196 74.09 331.328 73.2978 331.404 72.4679C331.517 71.638 331.574 70.7516 331.574 69.8085V56.7944C331.574 56.5303 331.479 56.3983 331.291 56.3983H328.292C328.179 56.3983 328.122 56.2851 328.122 56.0588C328.122 55.7193 328.405 55.2477 328.971 54.6442C329.574 54.0406 330.234 53.7389 330.951 53.7389H331.291C331.479 53.7389 331.574 53.6257 331.574 53.3994V52.6638C331.574 50.6645 331.894 48.7972 332.536 47.062C333.177 45.3268 334.026 43.7802 335.082 42.4222C336.176 41.0642 337.383 40.008 338.703 39.2535C340.061 38.4991 341.438 38.1219 342.834 38.1219C345.587 38.1219 347.379 38.8574 348.209 40.3286C348.209 42.7051 347.53 43.8934 346.172 43.8934C345.757 43.8934 345.38 43.7236 345.04 43.3841C344.701 43.0069 344.343 42.5919 343.965 42.1393C343.626 41.6489 343.211 41.2339 342.721 40.8944C342.268 40.5172 341.721 40.3286 341.08 40.3286C339.986 40.3286 339.043 40.8001 338.25 41.7432C337.458 42.6863 336.855 43.9311 336.44 45.4777C336.063 47.0243 335.874 48.7218 335.874 50.5702V53.4559C335.874 53.6446 335.968 53.7389 336.157 53.7389H342.438C342.626 53.7389 342.721 53.8709 342.721 54.1349C342.721 54.7385 342.494 55.4929 342.042 56.3983H336.213C335.987 56.3983 335.874 56.5114 335.874 56.7378V69.8085C335.874 71.8455 336.044 73.5242 336.383 74.8444C336.459 74.9953 336.704 75.1651 337.119 75.3537C337.534 75.5423 337.986 75.6932 338.477 75.8063C338.967 75.9195 339.326 75.9761 339.552 75.9761C339.665 75.9761 339.74 76.2024 339.778 76.6551C339.816 77.1078 339.797 77.4284 339.722 77.617L333.667 77.3341L327.726 77.617ZM349.85 90.2917C349.058 90.2917 348.473 90.0465 348.096 89.5561C347.719 89.0657 347.53 88.5753 347.53 88.0849C347.53 87.2928 347.794 86.6892 348.322 86.2743C351.453 86.2743 353.528 84.6522 354.546 81.4081C354.735 80.8423 354.961 80.1633 355.225 79.3711C355.49 78.5789 355.697 77.9377 355.848 77.4473L347.756 57.6431C347.568 57.1904 347.379 56.8132 347.191 56.5114C347.002 56.1719 346.813 55.9079 346.625 55.7193C346.285 55.3798 345.757 55.0969 345.04 54.8705C344.361 54.6442 343.815 54.531 343.4 54.531C343.249 54.531 343.173 54.2858 343.173 53.7954C343.173 53.3428 343.249 53.041 343.4 52.8901C344.418 52.9278 345.418 52.9844 346.398 53.0599C347.417 53.0976 348.454 53.1164 349.511 53.1164C350.718 53.1164 351.755 53.0976 352.623 53.0599C353.49 52.9844 354.282 52.9278 354.999 52.8901C355.075 53.1919 355.112 53.4748 355.112 53.7389C355.112 54.267 355.037 54.531 354.886 54.531C354.735 54.531 354.452 54.5876 354.037 54.7008C353.66 54.8139 353.283 54.9648 352.906 55.1534C352.528 55.3043 352.302 55.4929 352.227 55.7193V55.8324C352.227 56.4737 354.245 61.3965 358.281 70.6007L362.581 58.2089C362.845 57.4545 362.977 56.8698 362.977 56.4549C362.977 55.889 362.676 55.4364 362.072 55.0969C361.506 54.7196 360.733 54.531 359.752 54.531C359.601 54.531 359.526 54.2858 359.526 53.7954C359.526 53.3428 359.601 53.041 359.752 52.8901C360.243 52.9278 360.978 52.9844 361.959 53.0599C362.94 53.1353 363.883 53.173 364.788 53.173C365.618 53.173 366.523 53.1353 367.504 53.0599C368.485 52.9844 369.22 52.9278 369.711 52.8901C369.786 53.1919 369.824 53.4748 369.824 53.7389C369.824 54.267 369.749 54.531 369.598 54.531C369.107 54.531 368.447 54.7008 367.617 55.0403C366.787 55.3798 366.221 55.9267 365.92 56.6812L355.791 84.0109C354.924 86.3497 353.943 87.9718 352.849 88.8771C351.755 89.8201 350.755 90.2917 349.85 90.2917Z" fill="url(#paint6_linear_245_131)"/>
<defs>
<linearGradient id="paint0_linear_245_131" x1="72.8291" y1="27.817" x2="87.8027" y2="27.817" gradientUnits="userSpaceOnUse">
<stop stop-color="#222E50"/>
<stop offset="0.489449" stop-color="#007991"/>
<stop offset="1" stop-color="#439A86"/>
</linearGradient>
<linearGradient id="paint1_linear_245_131" x1="102.703" y1="27.7418" x2="87.7295" y2="27.7418" gradientUnits="userSpaceOnUse">
<stop stop-color="#222E50"/>
<stop offset="0.489449" stop-color="#007991"/>
<stop offset="1" stop-color="#439A86"/>
</linearGradient>
<linearGradient id="paint2_linear_245_131" x1="37.2415" y1="76.5878" x2="86.9832" y2="76.5878" gradientUnits="userSpaceOnUse">
<stop stop-color="#222E50"/>
<stop offset="0.489449" stop-color="#007991"/>
<stop offset="1" stop-color="#439A86"/>
</linearGradient>
<linearGradient id="paint3_linear_245_131" x1="137.163" y1="76.5883" x2="86.9833" y2="76.5883" gradientUnits="userSpaceOnUse">
<stop stop-color="#222E50"/>
<stop offset="0.489449" stop-color="#007991"/>
<stop offset="1" stop-color="#439A86"/>
</linearGradient>
<linearGradient id="paint4_linear_245_131" x1="54.8525" y1="52.0893" x2="87.3563" y2="52.0893" gradientUnits="userSpaceOnUse">
<stop stop-color="#222E50"/>
<stop offset="0.489449" stop-color="#007991"/>
<stop offset="1" stop-color="#439A86"/>
</linearGradient>
<linearGradient id="paint5_linear_245_131" x1="119.786" y1="52.1635" x2="87.2824" y2="52.1635" gradientUnits="userSpaceOnUse">
<stop stop-color="#222E50"/>
<stop offset="0.489449" stop-color="#007991"/>
<stop offset="1" stop-color="#439A86"/>
</linearGradient>
<linearGradient id="paint6_linear_245_131" x1="264.62" y1="10.7608" x2="264.62" y2="77.0995" gradientUnits="userSpaceOnUse">
<stop offset="0.124498" stop-color="#222E50"/>
<stop offset="0.619343" stop-color="#007991"/>
<stop offset="1" stop-color="#439A86"/>
</linearGradient>
</defs>
</svg>
