<!DOCTYPE svg PUBLIC "-//W3C//DTD SVG 1.1//EN" "http://www.w3.org/Graphics/SVG/1.1/DTD/svg11.dtd">
<!-- Uploaded to: SVG Repo, www.svgrepo.com, Transformed by: SVG Repo Mixer Tools -->
<svg width="800px" height="800px" viewBox="0 0 1024 1024" class="icon" version="1.1" xmlns="http://www.w3.org/2000/svg" fill="#ffffff" data-darkreader-inline-fill="" style="--darkreader-inline-fill: #181a1b; --darkreader-inline-stroke: #e7e6e4;" stroke="#ffffff" data-darkreader-inline-stroke="">
<g id="SVGRepo_bgCarrier" stroke-width="0"/>
<g id="SVGRepo_tracerCarrier" stroke-linecap="round" stroke-linejoin="round"/>
<g id="SVGRepo_iconCarrier">
<path d="M689.1 462.3c10.5 10.5 24.6 16.2 39.5 16.2s29-5.8 39.5-16.2l116.1-115.4c10.5-10.5 16.3-24.4 16.3-39.3 0-14.9-5.8-28.8-16.3-39.3L761 145.9c-21.1-20.9-57.9-20.9-79 0L566 261.3c-10.5 10.5-16.3 24.4-16.3 39.3s5.8 28.8 16.3 39.3l123.1 122.4z m-89.3-167.4l116.1-115.4c2-2 4.4-2.3 5.6-2.3 1.2 0 3.6 0.3 5.6 2.3L850.3 302c2 2 2.3 4.4 2.3 5.6 0 1.2-0.3 3.6-2.3 5.6l-116 115.4c-2 2-4.4 2.3-5.6 2.3-1.2 0-3.6-0.3-5.6-2.3L599.8 306.2c-2-2-2.3-4.4-2.3-5.6s0.3-3.7 2.3-5.7zM316.1 588.4c-21.1-20.9-58-20.9-79 0l-15.3 15.2c-15.3 15.3-31.5 42.4-37.5 63.1l-51.1 174.7c-4.3 14.6-2.4 28.2 5.3 38.4 7 9.3 18.2 14.6 30.7 14.6 5 0 10.3-0.8 15.6-2.5l182.4-56.1c20.6-6.3 47.7-22.6 62.9-37.7l9-8.9c10.5-10.5 16.3-24.4 16.3-39.3 0-14.9-5.8-28.8-16.3-39.3l-123-122.2z m89.2 167.2l-9 8.9c-9.6 9.6-30.2 21.9-43.2 25.9L244 823.9l-41.3-49.5 27.6-94.3c3.8-12.9 15.9-33.3 25.4-42.7l15.3-15.2c2-2 4.4-2.3 5.6-2.3 1.2 0 3.6 0.3 5.6 2.3l123 122.3c2 2 2.3 4.4 2.3 5.6 0.1 1.2-0.2 3.6-2.2 5.5zM324 145.9c-21.1-20.9-57.9-20.9-79 0L121.9 268.3c-10.5 10.5-16.3 24.4-16.3 39.3 0 14.9 5.8 28.8 16.3 39.3l560.2 557c10.5 10.5 24.6 16.2 39.5 16.2 14.9 0 29-5.8 39.5-16.2l123.2-122.5c10.5-10.5 16.3-24.4 16.3-39.3 0-14.9-5.8-28.8-16.3-39.3L324 145.9z m526.3 601.8L727.2 870.2c-2 2-4.4 2.3-5.6 2.3-1.2 0-3.6-0.3-5.6-2.3l-560.2-557c-2-2-2.3-4.4-2.3-5.6 0-1.2 0.3-3.6 2.3-5.6l123.1-122.5c2-2 4.4-2.3 5.6-2.3 1.2 0 3.6 0.3 5.6 2.3l16.7 16.6-57.1 56.9c-9.4 9.3-9.4 24.4 0 33.7 4.7 4.6 10.8 7 16.9 7 6.1 0 12.3-2.3 16.9-7l57.2-56.9 27.8 27.7-24.7 24.6c-9.3 9.3-9.3 24.4 0 33.7 4.7 4.6 10.8 7 16.9 7 6.1 0 12.3-2.3 16.9-7l24.7-24.6 27.8 27.7-57.2 56.9c-9.4 9.3-9.4 24.4 0 33.7 4.7 4.6 10.8 7 16.9 7 6.1 0 12.2-2.3 16.9-7l57.2-56.9 27.9 27.7-24.7 24.6c-9.3 9.3-9.3 24.4 0 33.7 4.7 4.7 10.8 7 16.9 7 6.1 0 12.3-2.3 16.9-7l24.7-24.6 27.9 27.7-57.2 56.9c-9.3 9.3-9.3 24.4 0 33.7 4.7 4.6 10.8 7 16.9 7 6.1 0 12.3-2.3 16.9-7l57.2-56.9 27.9 27.7-24.7 24.6c-9.3 9.3-9.3 24.4 0 33.7 4.7 4.7 10.8 7 16.9 7 6.1 0 12.3-2.3 16.9-7l24.7-24.6 27.8 27.7-57.2 56.9c-9.4 9.3-9.4 24.4 0 33.7 4.7 4.7 10.8 7 16.9 7 6.1 0 12.2-2.3 16.9-7l57.2-56.9 27.8 27.7-24.7 24.6c-9.3 9.3-9.3 24.4 0 33.7 4.7 4.6 10.8 7 16.9 7 6.1 0 12.3-2.3 16.9-7l24.7-24.6 27.9 27.7-57.2 56.9c-9.4 9.3-9.4 24.4 0 33.7 4.7 4.6 10.8 7 16.9 7 6.1 0 12.3-2.3 16.9-7l57.2-56.9 15.9 15.9c2 2 2.3 4.4 2.3 5.6s0.2 3.2-1.8 5.2z" fill="#000000" data-darkreader-inline-fill="" style="--darkreader-inline-fill: #000000;"/>
</g>
</svg>