<svg width="1050" height="300" viewBox="0 0 1050 300" fill="none" xmlns="http://www.w3.org/2000/svg">
<rect width="1049.47" height="300" fill="black"/>
<g clip-path="url(#clip0_1_50)">
<rect width="300" height="300" fill="white"/>
<path d="M0 150V300H150H300V150V6.10352e-05H150H0V150ZM153 53.4601C178.26 56.58 203.76 69.1801 217.86 85.3801C229.08 98.3401 236.4 112.98 240.48 130.8C241.86 136.92 242.04 139.02 242.04 149.4C242.1 158.52 241.86 162.24 241.02 166.2C238.62 177.3 233.52 189.48 227.46 198.6C223.2 204.96 220.8 207.6 224.16 202.2C231.84 190.02 237.24 175.08 238.8 161.82C240.12 151.02 238.92 136.26 235.98 125.82L234.96 122.1L234.42 124.62C233.88 127.44 233.1 127.92 232.44 125.82C231.66 123.24 224.88 110.16 222.18 106.02C213.66 92.7601 201.48 81.9001 186.6 74.16C178.02 69.72 172.14 67.4401 162.9 65.1001C143.1 60.0001 126.84 59.94 110.16 64.86C105.18 66.36 92.88 72.1801 88.32 75.2401C83.52 78.4801 85.2 76.7401 90.48 73.0201C99.9 66.3601 110.82 61.5 121.8 59.1001C127.86 57.78 143.1 57.2401 150.48 58.2C172.74 60.9001 192.48 69.1801 209.52 82.8001L213.3 85.86L208.8 81.6601C200.58 73.9201 191.4 68.0401 179.1 62.7C166.74 57.3 155.52 55.08 141 55.08C121.74 55.08 103.62 60.4201 86.82 71.0401C80.28 75.1801 80.52 74.4001 87.18 70.0201C106.38 57.3601 132.3 50.8801 153 53.4601ZM81 74.6401C81 74.7601 79.98 75.6001 78.78 76.5001L76.5 78.0601L78.6 76.2601C80.64 74.4001 81 74.1601 81 74.6401ZM70.8 91.44C70.8 91.56 70.32 92.0401 69.78 92.4601C68.82 93.2401 68.76 93.1801 69.54 92.22C70.32 91.2601 70.8 90.9601 70.8 91.44ZM65.04 99.5401C54.96 114.96 50.58 129.42 49.98 149.16C49.62 160.5 50.16 166.08 52.56 175.2C57.06 192.36 71.58 209.58 91.74 221.64C107.16 230.82 117.6 235.5 126.6 237.3C129.42 237.9 131.82 238.44 131.94 238.56C132.54 239.1 129.9 241.2 128.7 241.2C126.12 241.2 113.58 236.82 107.4 233.76C92.76 226.44 75.06 213.72 67.14 204.72C64.14 201.3 64.68 202.44 68.34 207.3C72.78 213.18 81.54 221.4 87.9 225.66C100.38 234 117.84 241.08 130.5 242.94C134.94 243.6 152.4 242.94 159.6 241.86C179.46 238.8 190.74 234.36 204.48 223.92C207.9 221.34 206.52 222.9 202.68 225.96C192.66 233.94 184.44 238.5 175.08 241.14C162.12 244.86 152.04 246.24 137.7 246.24C125.52 246.3 121.02 245.58 110.4 241.98C95.58 237 82.62 229.02 72 218.46C65.16 211.62 61.62 206.76 56.58 197.04C52.92 190.08 51.6 186.36 47.4 171.9C42.54 154.98 41.94 149.64 43.5 137.94C45.48 122.64 50.4 109.02 57.66 98.2801C60.72 93.7801 61.26 93.7801 58.38 98.2201C52.08 108.12 46.68 123.42 44.94 136.5C44.22 142.02 44.52 152.58 45.54 156.6C46.02 158.52 46.08 158.4 46.14 155.04C46.38 139.62 49.98 124.8 56.58 111.9C60.36 104.58 67.68 93.6001 68.82 93.6001C68.88 93.6001 67.2 96.3001 65.04 99.5401ZM235.14 132.3C235.14 132.6 234.78 132.36 234.3 131.76C233.82 131.1 233.4 130.14 233.4 129.66C233.46 128.64 235.14 131.22 235.14 132.3ZM221.4 207.24C221.4 207.36 220.92 207.84 220.38 208.26C219.42 209.04 219.36 208.98 220.14 208.02C220.92 207.06 221.4 206.76 221.4 207.24ZM214.2 215.58C214.2 215.7 213.6 216.3 212.88 216.96L211.5 218.1L212.64 216.72C213.72 215.46 214.2 215.1 214.2 215.58Z" fill="black"/>
</g>
<path d="M328.614 189.733V116.877H373.681V124.059H337.357V149.454H370.558V156.532H337.357V182.552H373.681V189.733H328.614ZM403.391 189.733L425.664 152.993L403.391 116.877H413.278L431.18 146.02L448.249 116.877H458.033L435.76 153.409L458.137 189.733H448.249L430.243 160.487L413.278 189.733H403.391ZM489.523 189.733V116.877H498.266V189.733H489.523ZM556.698 190.982C551.356 190.982 546.707 190.011 542.752 188.068C538.797 186.125 535.744 183.419 533.593 179.95C531.442 176.48 530.366 172.456 530.366 167.876H539.525C539.525 170.721 540.185 173.358 541.503 175.786C542.821 178.146 544.729 180.054 547.227 181.511C549.795 182.899 552.952 183.592 556.698 183.592C561.625 183.592 565.441 182.413 568.147 180.054C570.853 177.695 572.206 174.746 572.206 171.207C572.206 168.293 571.582 165.968 570.333 164.234C569.084 162.43 567.384 160.972 565.233 159.862C563.151 158.752 560.723 157.781 557.947 156.948C555.241 156.115 552.397 155.179 549.413 154.138C543.793 152.195 539.629 149.801 536.923 146.956C534.217 144.042 532.864 140.261 532.864 135.612C532.795 131.726 533.697 128.291 535.57 125.308C537.444 122.255 540.08 119.896 543.48 118.23C546.95 116.496 551.043 115.628 555.762 115.628C560.411 115.628 564.435 116.496 567.835 118.23C571.304 119.965 573.976 122.359 575.849 125.412C577.792 128.465 578.798 131.934 578.867 135.82H569.708C569.708 133.808 569.188 131.83 568.147 129.887C567.106 127.875 565.511 126.244 563.36 124.996C561.278 123.747 558.641 123.122 555.45 123.122C551.495 123.053 548.233 124.059 545.666 126.14C543.168 128.222 541.919 131.102 541.919 134.779C541.919 137.901 542.787 140.295 544.521 141.961C546.325 143.626 548.823 145.014 552.015 146.124C555.207 147.165 558.884 148.379 563.047 149.766C566.517 151.015 569.639 152.473 572.415 154.138C575.19 155.803 577.341 157.954 578.867 160.591C580.463 163.227 581.261 166.593 581.261 170.687C581.261 174.156 580.359 177.452 578.555 180.574C576.751 183.627 574.01 186.125 570.333 188.068C566.725 190.011 562.18 190.982 556.698 190.982ZM628.776 189.733V124.059H607.023V116.877H659.271V124.059H637.519V189.733H628.776ZM689.722 189.733V116.877H734.789V124.059H698.465V149.454H731.666V156.532H698.465V182.552H734.789V189.733H689.722ZM768.245 189.733V116.877H776.988L815.81 175.266V116.877H824.552V189.733H815.81L776.988 131.344V189.733H768.245ZM891.731 190.982C884.584 190.982 878.409 189.421 873.205 186.298C868.07 183.107 864.08 178.701 861.236 173.08C858.391 167.391 856.968 160.799 856.968 153.305C856.968 145.881 858.391 139.359 861.236 133.738C864.08 128.049 868.07 123.608 873.205 120.416C878.409 117.224 884.584 115.628 891.731 115.628C900.057 115.628 906.823 117.641 912.026 121.665C917.3 125.62 920.665 131.171 922.122 138.318H912.443C911.333 133.808 909.043 130.2 905.574 127.493C902.174 124.718 897.559 123.33 891.731 123.33C886.527 123.33 881.982 124.545 878.097 126.973C874.211 129.332 871.193 132.767 869.042 137.277C866.96 141.718 865.919 147.06 865.919 153.305C865.919 159.55 866.96 164.927 869.042 169.438C871.193 173.878 874.211 177.313 878.097 179.741C881.982 182.101 886.527 183.28 891.731 183.28C897.559 183.28 902.174 181.962 905.574 179.325C909.043 176.619 911.333 173.046 912.443 168.605H922.122C920.665 175.613 917.3 181.094 912.026 185.05C906.823 189.005 900.057 190.982 891.731 190.982ZM954.463 189.733V116.877H999.529V124.059H963.205V149.454H996.407V156.532H963.205V182.552H999.529V189.733H954.463Z" fill="white"/>
<defs>
<clipPath id="clip0_1_50">
<rect width="300" height="300" fill="white"/>
</clipPath>
</defs>
</svg>
