<svg width="150" height="150" viewBox="0 0 150 150" fill="none" xmlns="http://www.w3.org/2000/svg">
<path d="M96.0784 4.1085C96.4709 4.39427 96.8611 4.68338 97.2473 4.97738C97.5006 5.14465 97.7537 5.3119 98.0147 5.48423C100.714 8.01867 102.188 11.4757 102.508 15.1143C102.555 19.3344 101.322 22.7225 98.4165 25.8304C96.7498 27.2689 95.2001 28.1481 93.1559 29.0162C93.0594 34.9419 92.963 40.8677 92.8637 46.9729C94.5997 47.2598 94.5997 47.2598 96.3706 47.5523C100.816 48.7498 104.628 50.92 108.061 53.9239C108.395 54.1906 108.73 54.4562 109.065 54.7204C109.808 55.3664 110.395 56.0356 110.983 56.8202C112.593 56.36 113.867 55.5881 115.251 54.6883C116.465 53.9098 117.691 53.1867 118.97 52.5158C119.723 52.1185 120.469 51.7077 121.214 51.296C121.587 51.0946 121.964 50.8991 122.343 50.71C124.471 49.7073 124.471 49.7073 125.776 47.885C125.945 46.8787 125.945 45.9087 125.898 44.8925C125.874 42.1321 127.523 39.6491 129.395 37.705C131.989 35.311 135.163 34.4066 138.649 34.4364C140.994 34.6352 143.335 35.3581 145.177 36.836C145.34 36.9541 145.504 37.0721 145.672 37.1935C147.882 38.8812 149.549 41.6739 149.945 44.4325C149.991 45.1129 150.004 45.7841 149.999 46.466C149.997 46.7071 149.996 46.9481 149.994 47.1962C149.901 50.3981 148.627 53.0975 146.346 55.3721C145.509 56.0319 144.643 56.5841 143.715 57.1098C143.432 57.2771 143.149 57.4444 142.857 57.6166C139.621 58.9254 136.453 58.8387 133.194 57.6892C132.764 57.4739 132.337 57.2512 131.916 57.0194C130.936 56.4277 130.936 56.4277 130.174 56.7252C129.282 57.1658 128.423 57.6414 127.563 58.1416C127.302 58.2927 127.302 58.2927 127.037 58.4471C126.477 58.7725 125.917 59.0996 125.358 59.4269C124.975 59.6502 124.592 59.8737 124.208 60.0971C121.526 61.6642 118.866 63.2642 116.244 64.9298C116.321 65.2206 116.399 65.5114 116.479 65.811C117.443 69.4816 118.122 72.9887 117.997 76.8044C118.172 76.8183 118.347 76.8323 118.527 76.8467C120.391 77.0112 122.195 77.311 124.025 77.6912C124.423 77.7723 124.423 77.7723 124.83 77.8548C125.475 77.986 126.12 78.1185 126.765 78.2525C126.852 78.0716 126.938 77.891 127.028 77.7048C128.086 75.6935 130.525 74.3546 132.61 73.6185C136.43 72.6854 139.464 73.0985 142.929 74.8833C145.826 76.625 147.397 79.1342 148.391 82.3071C149.136 86.0473 148.3 89.2098 146.346 92.4439C144.6 94.8252 141.95 96.4879 139.039 97.0781C135.26 97.5152 132.16 96.9919 128.993 94.7973C126.635 92.8864 125.143 90.5871 124.482 87.6108C124.455 87.2794 124.455 87.2794 124.427 86.9412C124.047 86.9112 123.667 86.8814 123.276 86.8506C121.009 86.6302 118.775 86.1919 116.536 85.7827C116.391 86.0802 116.246 86.3777 116.096 86.6844C114.479 89.9698 112.863 93.0285 110.225 95.6379C109.754 96.161 109.754 96.161 109.863 96.7106C110.2 97.6194 110.721 98.3831 111.262 99.1823C111.381 99.3614 111.5 99.5406 111.622 99.7252C112.291 100.73 112.968 101.728 113.647 102.726C113.935 103.149 114.222 103.573 114.509 103.997C114.654 104.212 114.799 104.427 114.948 104.648C115.961 106.165 116.873 107.718 117.76 109.31C119.864 113.445 119.864 113.445 123.305 116.288C125.217 116.615 126.934 116.336 128.819 115.985C132.048 115.683 135.323 117.554 137.811 119.41C141.08 122.183 143.54 126.076 144.008 130.385C144.363 135.667 143.267 140.11 139.88 144.341C136.976 147.425 132.739 149.697 128.453 149.849C122.961 149.938 118.585 148.752 114.503 144.92C111.157 141.636 109.622 137.331 109.522 132.702C109.687 128.632 110.874 125.249 113.417 122.056C113.955 121.412 113.955 121.412 114.198 120.538C113.766 119.773 113.32 119.067 112.823 118.345C112.678 118.127 112.532 117.91 112.381 117.686C112.073 117.225 111.763 116.766 111.452 116.307C110.86 115.432 110.277 114.551 109.695 113.669C108.836 112.37 107.973 111.075 107.111 109.778C105.46 107.294 103.815 104.809 102.216 102.291C101.878 102.405 101.54 102.518 101.193 102.635C100.953 102.714 100.712 102.792 100.465 102.873C99.8163 103.085 99.1697 103.301 98.5238 103.52C90.0816 106.321 81.8721 105.329 73.8674 101.712C73.8051 101.869 73.743 102.026 73.6789 102.187C73.1396 103.118 72.3944 103.799 71.6206 104.536C70.4345 105.686 69.3049 106.852 68.2289 108.105C67.6494 108.753 67.0369 109.358 66.4149 109.966C64.7839 111.563 63.311 113.257 61.8849 115.035C62.0381 115.386 62.0381 115.386 62.1944 115.744C62.3273 116.054 62.4604 116.363 62.5973 116.682C62.7957 117.141 62.7957 117.141 62.9981 117.609C64.3293 121.056 63.8347 125.003 62.4695 128.357C60.6401 131.889 57.937 134.501 54.1906 135.983C50.3142 137.206 46.6726 137.1 42.8886 135.598C41.1154 134.678 39.537 133.623 38.2126 132.123C38.0727 131.981 37.9331 131.84 37.789 131.695C34.9711 128.726 34.234 124.931 34.3221 120.998C34.4698 118.051 35.5141 115.6 37.3358 113.297C37.5387 113.025 37.5387 113.025 37.7457 112.748C38.8595 111.345 40.1941 110.458 41.7196 109.532C42.0723 109.29 42.0723 109.29 42.432 109.043C45.7882 107.34 49.999 107.255 53.6106 108.229C54.0334 108.366 54.4549 108.507 54.8708 108.663C55.9247 107.647 56.9459 106.62 57.903 105.513C58.6604 104.642 59.4513 103.823 60.2776 103.015C61.2782 102.037 62.2109 101.027 63.1225 99.9675C63.8628 99.1462 64.6677 98.3958 65.4799 97.6448C66.0368 97.0091 66.289 96.4223 66.5609 95.63C66.4405 95.5062 66.3199 95.3827 66.1956 95.2554C61.1901 89.8852 58.9929 82.9194 58.7797 75.7362C58.7685 75.4192 58.7571 75.1021 58.7455 74.7752C58.7185 74.0035 58.6933 73.2319 58.6703 72.46C56.048 71.6635 53.4256 70.8679 50.8029 70.0727C49.5843 69.7031 48.3659 69.3335 47.1473 68.9635C41.6468 67.2929 36.1447 65.6323 30.6142 64.0608C30.529 64.2394 30.4441 64.4179 30.3564 64.6019C28.9751 67.2117 25.7013 68.8889 23.0155 69.8533C18.3633 71.2914 13.67 70.9273 9.27401 68.8589C5.11422 66.6521 2.32204 63.2323 0.676563 58.8837C-0.638616 54.2006 0.0147582 49.305 2.19262 45.0179C4.72563 40.72 8.59371 38.1341 13.3712 36.836C18.3021 35.8319 22.8475 36.8891 27.1071 39.4427C30.9634 42.3 33.7135 46.2606 34.4134 51.0277C34.5027 52.5727 34.4668 54.116 34.4134 55.6616C34.7833 55.7235 35.1532 55.7852 35.5344 55.8487C37.9999 56.3394 40.3823 57.1379 42.7789 57.8814C43.3042 58.0431 43.8294 58.2046 44.3546 58.366C45.7289 58.7885 47.1025 59.2125 48.476 59.6373C50.6825 60.3191 52.8894 60.9994 55.0969 61.6781C55.8674 61.9156 56.6377 62.1539 57.4077 62.3925C57.877 62.5371 58.346 62.6817 58.8152 62.826C59.1372 62.9262 59.1372 62.9262 59.4657 63.0285C60.5096 63.3654 60.5096 63.3654 61.5927 63.4816C61.7134 63.2433 61.8338 63.0052 61.958 62.7598C63.0999 60.5721 64.3447 58.6923 65.9766 56.8202C66.1382 56.6216 66.2998 56.4229 66.4663 56.2183C70.8594 50.94 77.2033 48.2812 83.8039 46.9729C83.7074 41.0473 83.6111 35.1214 83.5116 29.0162C82.4508 28.4427 81.3898 27.8694 80.2969 27.2785C76.973 24.8998 75.1354 21.6896 74.4518 17.7209C74.145 13.6931 75.12 9.82119 77.7213 6.66083C82.4155 1.67653 90.1992 0.326661 96.0784 4.1085ZM72.8341 62.58C69.0854 67.3244 67.4525 72.5666 68.0223 78.5421C68.7682 84.2256 71.8445 88.5604 76.1322 92.245C80.3377 95.4102 85.5851 96.7352 90.8178 96.2092C96.5928 95.3877 101.587 92.3942 105.138 87.81C108.219 83.2389 109.728 77.9706 108.758 72.4689C107.793 67.8637 105.656 64.0877 102.216 60.875C101.984 60.6581 101.753 60.441 101.515 60.2177C97.2361 56.5339 91.7854 55.2896 86.2308 55.6016C81.0547 56.0627 76.2315 58.7462 72.8341 62.58Z" fill="#B9375E"/>
</svg>
