<svg width="389" height="109" viewBox="0 0 389 109" fill="none" xmlns="http://www.w3.org/2000/svg">
<rect width="388.526" height="108.557" rx="12" fill="white"/>
<rect width="85.9928" height="85.5676" transform="translate(22.9893 11.4951)" fill="white"/>
<path d="M78.0686 12.7516C78.2937 12.9169 78.5173 13.0841 78.7388 13.2542C78.8839 13.351 79.0291 13.4477 79.1786 13.5474C80.7262 15.0135 81.5712 17.0134 81.7546 19.1182C81.7817 21.5595 81.0749 23.5195 79.409 25.3173C78.4535 26.1495 77.5651 26.6581 76.3932 27.1603C76.3379 30.5883 76.2826 34.0162 76.2256 37.548C77.2209 37.7139 77.2209 37.7139 78.2362 37.8831C80.7845 38.5759 82.97 39.8313 84.9379 41.5691C85.1294 41.7233 85.3213 41.877 85.5138 42.0298C85.9394 42.4035 86.2762 42.7906 86.6133 43.2445C87.5361 42.9783 88.2668 42.5318 89.0601 42.0112C89.7562 41.5608 90.4587 41.1425 91.1919 40.7545C91.6238 40.5246 92.0513 40.287 92.4787 40.0489C92.6925 39.9324 92.9082 39.8193 93.1257 39.7098C94.3456 39.1297 94.3456 39.1297 95.0939 38.0756C95.1908 37.4935 95.1907 36.9324 95.1636 36.3445C95.1498 34.7477 96.0953 33.3113 97.1686 32.1866C98.6556 30.8018 100.475 30.2786 102.474 30.2959C103.818 30.4108 105.16 30.8291 106.216 31.684C106.31 31.7522 106.403 31.8205 106.5 31.8908C107.767 32.8671 108.722 34.4826 108.95 36.0783C108.976 36.4721 108.984 36.8603 108.98 37.2548C108.979 37.3942 108.978 37.5336 108.978 37.6772C108.924 39.5294 108.194 41.091 106.886 42.4068C106.407 42.7885 105.91 43.108 105.378 43.412C105.216 43.5088 105.053 43.6056 104.886 43.7052C103.031 44.4623 101.215 44.4122 99.3466 43.7471C99.0999 43.6227 98.8552 43.4939 98.6136 43.3597C98.0521 43.0174 98.0521 43.0174 97.6151 43.1895C97.1036 43.4444 96.6111 43.7195 96.1182 44.0089C95.9688 44.0964 95.9688 44.0964 95.8165 44.1856C95.4954 44.3739 95.1749 44.5631 94.8544 44.7524C94.6347 44.8816 94.4149 45.0109 94.1952 45.1401C92.6571 46.0466 91.1323 46.9722 89.6291 47.9357C89.6736 48.104 89.7181 48.2722 89.7639 48.4455C90.3165 50.569 90.706 52.5977 90.6344 54.805C90.7347 54.8131 90.835 54.8212 90.9383 54.8295C92.0066 54.9248 93.0408 55.0982 94.09 55.3181C94.3184 55.3649 94.3184 55.3649 94.5514 55.4127C94.9213 55.4886 95.2911 55.5653 95.6607 55.6427C95.7105 55.5382 95.7603 55.4336 95.8115 55.3259C96.4182 54.1624 97.8165 53.3879 99.0116 52.962C101.201 52.4223 102.941 52.6613 104.927 53.6937C106.588 54.7012 107.489 56.1528 108.059 57.9883C108.486 60.1519 108.007 61.9814 106.886 63.8524C105.885 65.2298 104.366 66.1917 102.698 66.5331C100.531 66.7859 98.7538 66.4832 96.9382 65.2136C95.5866 64.1083 94.7311 62.7782 94.3518 61.0565C94.3362 60.8647 94.3362 60.8647 94.3203 60.669C94.1026 60.6517 93.8849 60.6345 93.6606 60.6167C92.3609 60.4891 91.08 60.2356 89.7967 59.9989C89.7135 60.171 89.6304 60.3431 89.5447 60.5205C88.6173 62.4211 87.6911 64.1905 86.1788 65.6999C85.9086 66.0026 85.9086 66.0026 85.9708 66.3206C86.1643 66.8462 86.463 67.288 86.773 67.7504C86.8412 67.854 86.9095 67.9576 86.9797 68.0644C87.3629 68.6455 87.7513 69.2231 88.1407 69.8001C88.3054 70.0452 88.47 70.2904 88.6343 70.5358C88.7175 70.66 88.8008 70.7842 88.8865 70.9121C89.4671 71.7896 89.99 72.6883 90.4983 73.6091C91.7045 76.001 91.7045 76.001 93.6774 77.6457C94.7737 77.8346 95.7577 77.6737 96.8386 77.4703C98.6894 77.2957 100.567 78.3779 101.993 79.4516C103.868 81.056 105.278 83.3078 105.546 85.8006C105.749 88.8562 105.121 91.4261 103.179 93.8741C101.514 95.6577 99.0855 96.9724 96.6286 97.06C93.4801 97.1117 90.971 96.4258 88.631 94.2087C86.7131 92.3093 85.8328 89.8188 85.7756 87.1409C85.8701 84.7868 86.5507 82.8295 88.0087 80.9824C88.3169 80.61 88.3169 80.61 88.4563 80.1041C88.2086 79.6619 87.9527 79.2535 87.6683 78.8357C87.5847 78.7098 87.5011 78.584 87.415 78.4543C87.238 78.1879 87.0602 77.922 86.8819 77.6565C86.5426 77.1503 86.2086 76.6407 85.8748 76.1309C85.3826 75.3795 84.8878 74.6298 84.3935 73.8798C83.4469 72.443 82.5037 71.005 81.587 69.5488C81.3935 69.6145 81.2 69.6801 81.0006 69.7478C80.8628 69.7931 80.7251 69.8385 80.5831 69.8852C80.2115 70.0078 79.8407 70.133 79.4705 70.2596C74.6307 71.8801 69.9244 71.306 65.3353 69.2137C65.2997 69.3045 65.264 69.3952 65.2273 69.4886C64.9181 70.0269 64.491 70.421 64.0473 70.8473C63.3674 71.5127 62.7198 72.1872 62.1029 72.9121C61.7707 73.287 61.4195 73.637 61.063 73.9887C60.1279 74.9126 59.2835 75.8923 58.466 76.9207C58.5538 77.1239 58.5538 77.1239 58.6434 77.3311C58.7196 77.5101 58.7959 77.6892 58.8744 77.8736C58.9881 78.139 58.9881 78.139 59.1041 78.4097C59.8674 80.4041 59.5838 82.6873 58.8011 84.6278C57.7524 86.6708 56.2027 88.1818 54.0549 89.0389C51.8327 89.7464 49.7449 89.685 47.5757 88.8163C46.5591 88.2841 45.6543 87.6736 44.895 86.8058C44.8149 86.7242 44.7348 86.6425 44.6522 86.5584C43.0367 84.8412 42.6142 82.6454 42.6646 80.3704C42.7493 78.6656 43.348 77.2478 44.3924 75.9155C44.5087 75.7584 44.5087 75.7584 44.6273 75.5981C45.2658 74.7862 46.0309 74.273 46.9055 73.7374C47.1077 73.5975 47.1077 73.5975 47.3139 73.4547C49.2381 72.4692 51.652 72.4203 53.7225 72.9835C53.9648 73.0629 54.2064 73.1447 54.445 73.2348C55.049 72.6473 55.6346 72.0527 56.1833 71.4128C56.6174 70.9085 57.0708 70.435 57.5445 69.9677C58.1182 69.4018 58.6529 68.8175 59.1755 68.2046C59.5999 67.7294 60.0614 67.2954 60.527 66.8609C60.8462 66.4932 60.9908 66.1537 61.1467 65.6953C61.0776 65.6238 61.0085 65.5524 60.9373 65.4787C58.0677 62.3721 56.808 58.3425 56.6859 54.1872C56.6794 54.0037 56.6729 53.8202 56.6663 53.6312C56.6507 53.1848 56.6363 52.7384 56.6231 52.2919C55.1198 51.8312 53.6164 51.3708 52.1129 50.9109C51.4143 50.6971 50.7157 50.4833 50.0172 50.2692C46.8637 49.3028 43.7095 48.3422 40.5389 47.4331C40.4901 47.5364 40.4414 47.6396 40.3911 47.746C39.5994 49.2558 37.7225 50.2261 36.1828 50.784C33.5157 51.6159 30.8251 51.4052 28.3049 50.2087C25.9202 48.9321 24.3195 46.9538 23.3761 44.4382C22.6222 41.7292 22.9967 38.8971 24.2453 36.4171C25.6974 33.9308 27.9149 32.4349 30.6538 31.684C33.4806 31.103 36.0865 31.7147 38.5284 33.1919C40.7392 34.8447 42.3157 37.1359 42.7169 39.8936C42.7682 40.7873 42.7476 41.6802 42.7169 42.5743C42.929 42.61 43.1411 42.6458 43.3596 42.6826C44.773 42.9663 46.1389 43.4282 47.5129 43.8584C47.8139 43.9519 48.115 44.0453 48.4161 44.1387C49.2039 44.3831 49.9915 44.6285 50.7789 44.8741C52.0438 45.2686 53.309 45.662 54.5745 46.0548C55.0162 46.1921 55.4578 46.33 55.8993 46.468C56.1683 46.5516 56.4372 46.6352 56.7062 46.7188C56.8908 46.7768 56.8908 46.7768 57.0791 46.8359C57.6775 47.0308 57.6775 47.0308 58.2985 47.098C58.3676 46.9602 58.4367 46.8224 58.5079 46.6805C59.1626 45.415 59.8761 44.3275 60.8116 43.2445C60.9043 43.1296 60.997 43.0147 61.0924 42.8963C63.6109 39.8429 67.2478 38.3048 71.0318 37.548C70.9765 34.1201 70.9212 30.6921 70.8643 27.1603C70.2561 26.8286 69.6479 26.4969 69.0213 26.1551C67.1158 24.779 66.0623 22.9219 65.6704 20.6261C65.4946 18.2961 66.0535 16.0563 67.5448 14.2281C70.2359 11.3447 74.6982 10.5638 78.0686 12.7516ZM64.743 46.5764C62.5939 49.321 61.6578 52.3536 61.9845 55.8103C62.412 59.0981 64.1757 61.6057 66.6338 63.7372C69.0447 65.5683 72.053 66.3347 75.0528 66.0304C78.3635 65.5552 81.2268 63.8235 83.2625 61.1717C85.0285 58.5273 85.8936 55.4797 85.3378 52.2971C84.7844 49.633 83.5594 47.4486 81.587 45.5901C81.4544 45.4646 81.3218 45.3391 81.1852 45.2099C78.7324 43.0789 75.6075 42.359 72.4231 42.5396C69.4557 42.8063 66.6907 44.3587 64.743 46.5764Z" fill="#B9375E"/>
<path d="M151.559 73.4835C150.343 70.557 149.11 67.6634 147.86 64.8026C146.643 61.909 145.427 58.999 144.21 56.0725C143.881 55.3162 143.503 54.3791 143.076 53.2611C142.648 52.1431 142.221 50.91 141.793 49.5619C141.366 48.2137 140.955 46.8327 140.56 45.4188C140.626 46.7669 140.659 48.0493 140.659 49.2659C140.692 50.4497 140.692 51.6006 140.659 52.7185C140.659 53.6064 140.643 54.5764 140.61 55.6286C140.61 56.6808 140.593 57.7659 140.56 58.8839C140.527 60.0019 140.495 61.1363 140.462 62.2872C140.462 63.4052 140.462 64.4903 140.462 65.5425C140.429 66.3645 140.396 67.1701 140.363 67.9593C140.33 68.7485 140.281 69.3897 140.215 69.8829C140.807 69.85 141.465 69.8171 142.188 69.7842C142.944 69.7514 143.536 69.7349 143.964 69.7349V72.9902H133.31V70.2775C134.165 70.2446 134.839 70.1131 135.332 69.8829C135.825 69.6198 136.187 69.1759 136.417 68.5512C136.647 67.9264 136.762 67.0386 136.762 65.8877L137.305 45.8134C137.338 44.9913 137.354 44.2021 137.354 43.4459C137.387 42.6896 137.42 42.0648 137.453 41.5716C136.927 41.6045 136.302 41.6373 135.579 41.6702C134.855 41.6702 134.263 41.6867 133.803 41.7196V38.4642H143.618L151.411 57.7002C151.74 58.5551 152.085 59.4758 152.447 60.4622C152.842 61.4487 153.22 62.4187 153.582 63.3723C153.943 64.3259 154.256 65.1643 154.519 65.8877H154.568C154.995 64.8355 155.406 63.7504 155.801 62.6324C156.196 61.4816 156.59 60.4129 156.985 59.4265C158.3 55.941 159.632 52.4719 160.98 49.0193C162.361 45.5339 163.742 42.0155 165.123 38.4642H175.136V41.177C174.379 41.177 173.722 41.2921 173.163 41.5223C172.637 41.7524 172.242 42.1963 171.979 42.854C171.716 43.4787 171.601 44.4652 171.634 45.8134L172.571 65.8877C172.637 66.6769 172.637 67.4332 172.571 68.1566C172.538 68.88 172.505 69.4554 172.472 69.8829C173.031 69.8171 173.672 69.7842 174.396 69.7842C175.152 69.7514 175.744 69.7349 176.171 69.7349V72.9902H163.347V70.2775C164.17 70.2446 164.844 70.0966 165.37 69.8336C165.896 69.5705 166.274 69.1102 166.504 68.4525C166.734 67.762 166.817 66.7591 166.751 65.4438L166.159 53.0638C166.159 52.6363 166.126 52.0116 166.06 51.1895C165.994 50.3675 165.945 49.4797 165.912 48.5261C165.879 47.5725 165.846 46.6683 165.814 45.8134C165.715 46.0435 165.6 46.2737 165.468 46.5039C165.37 46.734 165.288 46.9642 165.222 47.1944L155.111 73.4835H151.559ZM179.883 70.3761C180.836 70.3761 181.51 70.1788 181.905 69.7842C182.299 69.3568 182.546 68.7649 182.645 68.0086C182.743 67.2523 182.793 66.3974 182.793 65.4438V56.2205C182.793 55.6615 182.809 55.0532 182.842 54.3955C182.875 53.705 182.924 52.998 182.99 52.2746C182.431 52.3075 181.823 52.3404 181.165 52.3733C180.507 52.4062 179.965 52.4391 179.537 52.4719V49.2659C181.017 49.2659 182.234 49.2002 183.187 49.0687C184.174 48.9042 184.93 48.707 185.456 48.4768C186.015 48.2466 186.41 48.0329 186.64 47.8356H188.859V65.9371C188.859 66.4632 188.843 67.1044 188.81 67.8607C188.81 68.5841 188.761 69.291 188.662 69.9815C189.188 69.9158 189.747 69.8829 190.339 69.8829C190.964 69.85 191.473 69.8336 191.868 69.8336V72.9902H179.883V70.3761ZM185.555 43.5938C184.601 43.5938 183.796 43.2486 183.138 42.558C182.48 41.8346 182.151 40.9633 182.151 39.9439C182.151 38.9246 182.48 38.0532 183.138 37.3298C183.828 36.6064 184.634 36.2447 185.555 36.2447C186.508 36.2447 187.297 36.6064 187.922 37.3298C188.58 38.0532 188.909 38.9246 188.909 39.9439C188.909 40.9633 188.596 41.8346 187.972 42.558C187.347 43.2486 186.541 43.5938 185.555 43.5938ZM195.248 72.9902V70.3761C196.201 70.3761 196.875 70.1788 197.27 69.7842C197.665 69.3568 197.911 68.7649 198.01 68.0086C198.109 67.2523 198.158 66.3974 198.158 65.4438V56.1711C198.158 55.5793 198.174 54.9545 198.207 54.2969C198.24 53.6392 198.289 52.9652 198.355 52.2746C197.829 52.3075 197.221 52.3404 196.53 52.3733C195.873 52.4062 195.33 52.4391 194.903 52.4719V49.2659C196.382 49.2659 197.599 49.2002 198.552 49.0687C199.506 48.9042 200.246 48.707 200.772 48.4768C201.298 48.2466 201.676 48.0329 201.906 47.8356H203.978C204.044 48.1973 204.077 48.4932 204.077 48.7234C204.077 48.9536 204.093 49.2002 204.126 49.4632C204.159 49.6934 204.208 50.0387 204.274 50.499C204.932 49.94 205.688 49.4468 206.543 49.0193C207.431 48.559 208.318 48.1973 209.206 47.9342C210.094 47.6712 210.916 47.5396 211.672 47.5396C214.632 47.5396 216.753 48.411 218.035 50.1538C219.317 51.8965 219.959 54.675 219.959 58.4893V65.9371C219.959 66.4632 219.942 67.1044 219.909 67.8607C219.909 68.5841 219.86 69.291 219.761 69.9815C220.32 69.9158 220.896 69.8829 221.488 69.8829C222.079 69.85 222.573 69.8336 222.967 69.8336V72.9902H210.982V70.3761C211.935 70.3761 212.609 70.1788 213.004 69.7842C213.431 69.3568 213.695 68.7649 213.793 68.0086C213.892 67.2523 213.941 66.3974 213.941 65.4438L213.892 58.44C213.892 56.0725 213.53 54.3133 212.807 53.1625C212.116 51.9787 210.965 51.3868 209.354 51.3868C208.401 51.4197 207.463 51.6499 206.543 52.0773C205.622 52.5048 204.849 53.0474 204.225 53.705C204.257 54.0996 204.274 54.5106 204.274 54.9381C204.274 55.3655 204.274 55.793 204.274 56.2205L204.225 65.9371C204.225 66.4632 204.208 67.1044 204.175 67.8607C204.175 68.5841 204.126 69.291 204.027 69.9815C204.553 69.9158 205.112 69.8829 205.704 69.8829C206.329 69.85 206.839 69.8336 207.233 69.8336V72.9902H195.248ZM235.987 73.7794C234.014 73.7794 232.255 73.2697 230.71 72.2504C229.164 71.2311 227.948 69.7842 227.06 67.91C226.205 66.0357 225.777 63.8326 225.777 61.3007C225.777 58.6373 226.304 56.2698 227.356 54.1982C228.408 52.1267 229.855 50.499 231.696 49.3153C233.57 48.1315 235.724 47.5396 238.158 47.5396C239.111 47.5396 239.999 47.6547 240.821 47.8849C241.676 48.0822 242.416 48.3124 243.04 48.5754V44.1857C243.04 43.6925 243.04 43.0842 243.04 42.3607C243.073 41.6373 243.123 40.9139 243.188 40.1905C242.662 40.2234 242.054 40.2563 241.363 40.2892C240.706 40.3221 240.147 40.355 239.687 40.3878V37.1819C241.199 37.1819 242.432 37.1161 243.386 36.9846C244.339 36.8202 245.079 36.6229 245.605 36.3927C246.164 36.1625 246.559 35.9488 246.789 35.7515H249.058V65.9371C249.058 66.4303 249.041 67.0551 249.009 67.8113C248.976 68.5347 248.926 69.2581 248.861 69.9815C249.42 69.9158 249.995 69.8829 250.587 69.8829C251.212 69.85 251.738 69.8171 252.165 69.7842V72.9902H243.583C243.517 72.5957 243.451 72.2011 243.386 71.8065C243.353 71.379 243.304 70.9844 243.238 70.6227C242.218 71.7078 241.1 72.497 239.884 72.9902C238.667 73.5163 237.368 73.7794 235.987 73.7794ZM238.305 69.9815C239.226 69.9815 240.114 69.7349 240.969 69.2417C241.824 68.7156 242.514 68.0744 243.04 67.3181C243.008 66.8578 242.991 66.3974 242.991 65.9371C242.991 65.4438 242.991 64.9506 242.991 64.4574L243.04 51.8307C242.547 51.4362 241.922 51.1402 241.166 50.9429C240.41 50.7128 239.637 50.5977 238.848 50.5977C237.303 50.6305 236.037 51.1238 235.05 52.0773C234.097 52.998 233.39 54.2147 232.929 55.7272C232.502 57.2398 232.305 58.8839 232.337 60.6595C232.337 62.2707 232.551 63.7833 232.979 65.1972C233.406 66.6111 234.047 67.762 234.902 68.6498C235.79 69.5376 236.924 69.9815 238.305 69.9815ZM275.631 49.3153C275.4 47.5725 274.924 46.06 274.2 44.7776C273.477 43.4623 272.507 42.4594 271.29 41.7689C270.106 41.0455 268.676 40.6838 266.999 40.6838C265.388 40.6838 264.04 41.1441 262.955 42.0648C261.902 42.9855 261.376 44.1199 261.376 45.4681C261.376 46.5861 261.689 47.5561 262.313 48.3781C262.971 49.2002 263.908 49.9565 265.125 50.647C266.341 51.3046 267.788 51.9951 269.465 52.7185C270.715 53.2447 271.981 53.8365 273.263 54.4942C274.545 55.1189 275.729 55.8752 276.814 56.763C277.899 57.6508 278.771 58.6866 279.428 59.8704C280.119 61.0212 280.464 62.4023 280.464 64.0135C280.464 65.9206 279.955 67.614 278.935 69.0937C277.949 70.5734 276.535 71.7243 274.693 72.5463C272.852 73.3684 270.682 73.7794 268.183 73.7794C266.802 73.7794 265.338 73.5657 263.793 73.1382C262.248 72.7436 260.834 72.1353 259.551 71.3133L259.699 73.4341H256.345L256.247 62.2379H259.058C259.42 65.0328 260.456 67.1537 262.165 68.6005C263.875 70.0144 265.93 70.7214 268.331 70.7214C269.547 70.7214 270.632 70.5077 271.586 70.0802C272.54 69.6198 273.279 69.0115 273.806 68.2552C274.365 67.4661 274.644 66.5783 274.644 65.5918C274.644 64.3094 274.249 63.2572 273.46 62.4351C272.671 61.6131 271.668 60.9061 270.452 60.3143C269.235 59.7224 267.969 59.147 266.654 58.588C265.174 57.9632 263.777 57.3056 262.461 56.6151C261.146 55.8917 259.979 55.086 258.959 54.1982C257.973 53.2775 257.184 52.2253 256.592 51.0416C256.033 49.8578 255.753 48.4603 255.753 46.8491C255.753 45.8956 255.934 44.8927 256.296 43.8404C256.658 42.7553 257.25 41.7524 258.072 40.8317C258.927 39.9111 260.061 39.1548 261.475 38.5629C262.889 37.971 264.648 37.6751 266.752 37.6751C268.068 37.6751 269.498 37.8724 271.044 38.267C272.622 38.6287 274.003 39.237 275.187 40.0919L274.989 38.0203H278.393V49.3153H275.631ZM288.755 86.3567C287.572 86.3567 286.569 86.0279 285.747 85.3703C284.925 84.7126 284.514 83.8084 284.514 82.6575C284.514 81.8683 284.777 81.1614 285.303 80.5366C285.829 79.9448 286.503 79.6324 287.325 79.5995C288.048 79.5666 288.624 79.7968 289.051 80.29C289.512 80.8161 289.742 81.4409 289.742 82.1643C289.742 82.2629 289.742 82.3616 289.742 82.4602C289.742 82.5917 289.725 82.7233 289.693 82.8548C289.758 82.8548 289.873 82.8548 290.038 82.8548C290.367 82.789 290.712 82.5424 291.074 82.115C291.468 81.7204 291.83 81.1778 292.159 80.4873C292.553 79.731 292.964 78.7939 293.392 77.6759C293.819 76.5908 294.23 75.3742 294.625 74.026L286.881 58.0947C285.993 56.2534 285.385 54.8394 285.056 53.853C284.76 52.8665 284.547 52.0445 284.415 51.3868L282.146 51.4855V48.3288H293.737V50.9429H293.638C292.389 51.0416 291.698 51.5184 291.567 52.3733C291.435 53.1953 291.649 54.2147 292.208 55.4313L297.387 66.9235C297.847 65.6411 298.357 64.0628 298.916 62.1885C299.508 60.3143 300.165 58.3414 300.889 56.2698C301.053 55.7437 301.251 55.1682 301.481 54.5435C301.744 53.8859 302.007 53.2611 302.27 52.6692C302.533 52.0774 302.796 51.6334 303.059 51.3375L300.05 51.4855V48.3288H308.485V50.9429C307.399 51.2389 306.528 51.9129 305.87 52.9652C305.246 53.9845 304.654 55.2669 304.095 56.8123L297.929 74.2726C296.976 76.9689 296.088 79.2049 295.266 80.9805C294.444 82.789 293.523 84.1372 292.504 85.025C291.517 85.9128 290.268 86.3567 288.755 86.3567ZM310.752 72.9902V70.3761C311.705 70.3761 312.38 70.1788 312.774 69.7842C313.169 69.3568 313.415 68.7649 313.514 68.0086C313.613 67.2523 313.662 66.3974 313.662 65.4438V56.1711C313.662 55.5793 313.678 54.9545 313.711 54.2969C313.744 53.6392 313.793 52.9652 313.859 52.2746C313.333 52.3075 312.725 52.3404 312.034 52.3733C311.377 52.4062 310.834 52.4391 310.407 52.4719V49.2659C311.886 49.2659 313.103 49.2002 314.056 49.0687C315.01 48.9042 315.75 48.707 316.276 48.4768C316.802 48.2466 317.18 48.0329 317.41 47.8356H319.482C319.548 48.1973 319.581 48.4932 319.581 48.7234C319.581 48.9536 319.597 49.2002 319.63 49.4632C319.663 49.6934 319.712 50.0387 319.778 50.499C320.436 49.94 321.192 49.4468 322.047 49.0193C322.935 48.559 323.822 48.1973 324.71 47.9342C325.598 47.6712 326.42 47.5396 327.176 47.5396C330.136 47.5396 332.257 48.411 333.539 50.1538C334.821 51.8965 335.463 54.675 335.463 58.4893V65.9371C335.463 66.4632 335.446 67.1044 335.413 67.8607C335.413 68.5841 335.364 69.291 335.265 69.9815C335.824 69.9158 336.4 69.8829 336.992 69.8829C337.583 69.85 338.077 69.8336 338.471 69.8336V72.9902H326.486V70.3761C327.439 70.3761 328.113 70.1788 328.508 69.7842C328.936 69.3568 329.199 68.7649 329.297 68.0086C329.396 67.2523 329.445 66.3974 329.445 65.4438L329.396 58.44C329.396 56.0725 329.034 54.3133 328.311 53.1625C327.62 51.9787 326.469 51.3868 324.858 51.3868C323.905 51.4197 322.967 51.6499 322.047 52.0773C321.126 52.5048 320.353 53.0474 319.729 53.705C319.761 54.0996 319.778 54.5106 319.778 54.9381C319.778 55.3655 319.778 55.793 319.778 56.2205L319.729 65.9371C319.729 66.4632 319.712 67.1044 319.679 67.8607C319.679 68.5841 319.63 69.291 319.531 69.9815C320.057 69.9158 320.616 69.8829 321.208 69.8829C321.833 69.85 322.343 69.8336 322.737 69.8336V72.9902H310.752ZM353.415 73.7794C351.212 73.7794 349.173 73.2862 347.299 72.2997C345.458 71.3133 343.978 69.8829 342.86 68.0086C341.775 66.1015 341.232 63.8162 341.232 61.1528C341.232 59.3442 341.545 57.6344 342.169 56.0232C342.794 54.3791 343.665 52.9323 344.783 51.6828C345.934 50.4004 347.299 49.3975 348.877 48.6741C350.456 47.9178 352.198 47.5396 354.105 47.5396C356.111 47.5396 357.805 47.852 359.186 48.4768C360.567 49.0687 361.619 49.8743 362.342 50.8936C363.066 51.8801 363.427 52.9323 363.427 54.0503C363.427 54.9381 363.164 55.7108 362.638 56.3684C362.145 57.0261 361.422 57.3713 360.468 57.4042C359.35 57.4371 358.561 57.1247 358.101 56.4671C357.673 55.7766 357.459 55.1354 357.459 54.5435C357.459 54.2147 357.509 53.8694 357.607 53.5077C357.706 53.1131 357.87 52.7514 358.101 52.4226C357.87 51.8307 357.492 51.4033 356.966 51.1402C356.44 50.8443 355.898 50.647 355.339 50.5483C354.78 50.4497 354.336 50.4168 354.007 50.4497C352.198 50.5155 350.702 51.3375 349.518 52.9158C348.335 54.4942 347.743 56.7959 347.743 59.821C347.743 61.6295 347.989 63.3065 348.483 64.852C349.009 66.3645 349.798 67.5976 350.85 68.5512C351.902 69.4719 353.251 69.9487 354.895 69.9815C356.341 70.0144 357.739 69.6692 359.087 68.9458C360.435 68.1895 361.537 67.2195 362.392 66.0357L364.365 67.8607C363.28 69.4061 362.112 70.6063 360.863 71.4612C359.613 72.3162 358.347 72.908 357.065 73.2368C355.815 73.5985 354.599 73.7794 353.415 73.7794Z" fill="#B9375E"/>
</svg>
