<svg width="71" height="72" viewBox="0 0 71 72" fill="none" xmlns="http://www.w3.org/2000/svg">
<path d="M45.4771 1.97219C45.6629 2.10936 45.8476 2.24813 46.0304 2.38925C46.1503 2.46954 46.2701 2.54982 46.3936 2.63254C47.6713 3.84907 48.369 5.50845 48.5204 7.25495C48.5428 9.2806 47.9593 10.9069 46.5838 12.3987C45.7949 13.0892 45.0614 13.5112 44.0938 13.9279C44.0481 16.7722 44.0025 19.6166 43.9555 22.5471C44.7772 22.6848 44.7772 22.6848 45.6154 22.8252C47.7195 23.4 49.5239 24.4417 51.1487 25.8836C51.3068 26.0116 51.4653 26.1391 51.6243 26.2659C51.9757 26.576 52.2537 26.8972 52.5321 27.2738C53.294 27.0529 53.8972 26.6824 54.5522 26.2505C55.127 25.8768 55.707 25.5297 56.3123 25.2077C56.669 25.017 57.0219 24.8198 57.3748 24.6222C57.5513 24.5255 57.7294 24.4317 57.909 24.3409C58.9162 23.8596 58.9162 23.8596 59.534 22.9849C59.6141 22.5019 59.6139 22.0363 59.5916 21.5485C59.5802 20.2235 60.3608 19.0317 61.247 18.0985C62.4748 16.9494 63.9771 16.5153 65.6272 16.5296C66.7373 16.625 67.845 16.972 68.717 17.6814C68.7943 17.7381 68.8717 17.7947 68.9515 17.853C69.9975 18.6631 70.7865 20.0036 70.9742 21.3277C70.9957 21.6543 71.0021 21.9765 70.9994 22.3038C70.9986 22.4195 70.9979 22.5352 70.997 22.6543C70.953 24.1912 70.3502 25.4869 69.2703 26.5787C68.8743 26.8954 68.4642 27.1605 68.0253 27.4128C67.8912 27.4931 67.7571 27.5734 67.6189 27.6561C66.0875 28.2843 64.5879 28.2427 63.0453 27.6909C62.8416 27.5876 62.6396 27.4807 62.4401 27.3694C61.9765 27.0854 61.9765 27.0854 61.6157 27.2282C61.1933 27.4397 60.7867 27.668 60.3797 27.9081C60.2564 27.9806 60.2564 27.9806 60.1307 28.0547C59.8656 28.2109 59.6009 28.3679 59.3363 28.525C59.1549 28.6322 58.9735 28.7395 58.792 28.8467C57.5221 29.5989 56.2632 30.3669 55.0221 31.1664C55.0588 31.306 55.0955 31.4456 55.1334 31.5894C55.5896 33.3513 55.9112 35.0347 55.852 36.8662C55.9349 36.8729 56.0177 36.8796 56.103 36.8865C56.9851 36.9655 57.8389 37.1094 58.7052 37.2919C58.8937 37.3308 58.8937 37.3308 59.0861 37.3704C59.3915 37.4334 59.6968 37.497 60.002 37.5613C60.0431 37.4745 60.0842 37.3878 60.1266 37.2984C60.6274 36.333 61.782 35.6903 62.7687 35.337C64.5767 34.8891 66.0128 35.0874 67.653 35.9441C69.0241 36.7801 69.768 37.9845 70.2386 39.5075C70.5909 41.3028 70.1954 42.8208 69.2703 44.3732C68.444 45.5162 67.1895 46.3143 65.812 46.5976C64.0229 46.8074 62.5558 46.5562 61.0568 45.5028C59.9408 44.5856 59.2345 43.4819 58.9213 42.0533C58.9085 41.8942 58.9085 41.8942 58.8954 41.7319C58.7156 41.7175 58.5359 41.7032 58.3507 41.6884C57.2775 41.5826 56.22 41.3722 55.1604 41.1758C55.0917 41.3186 55.0231 41.4614 54.9523 41.6086C54.1866 43.1856 53.4219 44.6538 52.1733 45.9063C51.9502 46.1574 51.9502 46.1574 52.0016 46.4212C52.1613 46.8574 52.4079 47.224 52.6639 47.6076C52.7202 47.6936 52.7765 47.7796 52.8346 47.8682C53.151 48.3504 53.4717 48.8297 53.7931 49.3084C53.9291 49.5118 54.065 49.7153 54.2007 49.9188C54.2694 50.0219 54.3381 50.1249 54.4089 50.2311C54.8882 50.9592 55.32 51.7049 55.7397 52.469C56.7355 54.4537 56.7355 54.4537 58.3645 55.8183C59.2696 55.9751 60.0821 55.8416 60.9745 55.6728C62.5026 55.5279 64.053 56.4259 65.2305 57.3167C66.778 58.6481 67.9424 60.5164 68.1636 62.5848C68.3318 65.1203 67.8131 67.2527 66.2097 69.2839C64.8352 70.7639 62.8297 71.8547 60.8012 71.9274C58.2016 71.9703 56.13 71.4012 54.198 69.5616C52.6144 67.9855 51.8876 65.919 51.8404 63.697C51.9184 61.7437 52.4803 60.1196 53.6841 58.5869C53.9386 58.278 53.9386 58.278 54.0537 57.8582C53.8492 57.4913 53.6379 57.1524 53.4031 56.8057C53.3341 56.7013 53.2651 56.5969 53.1939 56.4892C53.0478 56.2682 52.901 56.0476 52.7538 55.8273C52.4737 55.4073 52.1979 54.9845 51.9223 54.5614C51.5159 53.9379 51.1073 53.3159 50.6992 52.6935C49.9177 51.5014 49.1389 50.3082 48.3821 49.0999C48.2223 49.1544 48.0625 49.2089 47.8979 49.265C47.7842 49.3026 47.6704 49.3403 47.5532 49.379C47.2464 49.4808 46.9403 49.5846 46.6346 49.6897C42.6386 51.0343 38.7528 50.5579 34.9639 48.8219C34.9344 48.8971 34.905 48.9724 34.8747 49.05C34.6194 49.4966 34.2667 49.8236 33.9004 50.1773C33.339 50.7294 32.8043 51.2891 32.295 51.8906C32.0207 52.2016 31.7308 52.4921 31.4364 52.7839C30.6644 53.5505 29.9672 54.3634 29.2922 55.2168C29.3647 55.3853 29.3647 55.3853 29.4387 55.5573C29.5016 55.7058 29.5646 55.8544 29.6294 56.0075C29.7233 56.2276 29.7233 56.2276 29.8191 56.4522C30.4492 58.1071 30.2151 60.0016 29.5689 61.6117C28.703 63.3069 27.4235 64.5607 25.6502 65.2718C23.8154 65.8589 22.0917 65.808 20.3006 65.0872C19.4613 64.6455 18.7142 64.139 18.0873 63.419C18.0211 63.3512 17.955 63.2835 17.8868 63.2137C16.553 61.7888 16.2041 59.9669 16.2458 58.0792C16.3157 56.6646 16.81 55.4881 17.6723 54.3827C17.7683 54.2523 17.7683 54.2523 17.8663 54.1193C18.3935 53.4457 19.0252 53.0198 19.7473 52.5754C19.9142 52.4593 19.9142 52.4593 20.0845 52.3408C21.6731 51.5231 23.6662 51.4825 25.3757 51.9498C25.5758 52.0157 25.7753 52.0836 25.9722 52.1584C26.471 51.6709 26.9544 51.1775 27.4074 50.6465C27.7659 50.2281 28.1403 49.8352 28.5314 49.4475C29.005 48.9779 29.4465 48.4931 29.878 47.9845C30.2284 47.5903 30.6094 47.2301 30.9938 46.8696C31.2574 46.5645 31.3768 46.2828 31.5055 45.9025C31.4485 45.8431 31.3914 45.7838 31.3326 45.7227C28.9633 43.145 27.9233 39.8014 27.8224 36.3535C27.8171 36.2013 27.8117 36.0491 27.8062 35.8922C27.7934 35.5218 27.7815 35.1514 27.7706 34.7809C26.5294 34.3986 25.2881 34.0167 24.0467 33.635C23.4699 33.4576 22.8932 33.2802 22.3164 33.1026C19.7128 32.3007 17.1085 31.5036 14.4907 30.7493C14.4504 30.835 14.4102 30.9207 14.3687 31.009C13.7149 32.2617 12.1653 33.0668 10.894 33.5297C8.69198 34.22 6.47047 34.0452 4.3897 33.0524C2.42073 31.9931 1.0991 30.3516 0.32024 28.2643C-0.302278 26.0164 0.00698564 23.6665 1.03784 21.6087C2.2368 19.5457 4.06769 18.3045 6.32905 17.6814C8.66299 17.1994 10.8145 17.7069 12.8307 18.9326C14.656 20.3041 15.9577 22.2052 16.289 24.4934C16.3313 25.235 16.3143 25.9758 16.289 26.7177C16.4641 26.7474 16.6392 26.777 16.8196 26.8075C17.9866 27.043 19.1143 27.4263 20.2487 27.7832C20.4973 27.8608 20.7459 27.9383 20.9945 28.0158C21.645 28.2186 22.2952 28.4221 22.9453 28.626C23.9897 28.9533 25.0343 29.2798 26.0792 29.6056C26.4439 29.7196 26.8085 29.834 27.173 29.9485C27.3951 30.0179 27.6171 30.0873 27.8392 30.1566C27.9916 30.2047 27.9916 30.2047 28.1471 30.2538C28.6412 30.4155 28.6412 30.4155 29.1539 30.4713C29.211 30.3569 29.268 30.2426 29.3268 30.1248C29.8673 29.0747 30.4565 28.1724 31.2289 27.2738C31.3054 27.1785 31.3819 27.0831 31.4607 26.9849C33.5401 24.4513 36.5429 23.1751 39.6672 22.5471C39.6215 19.7028 39.5759 16.8584 39.5288 13.9279C39.0267 13.6526 38.5245 13.3774 38.0072 13.0938C36.4339 11.952 35.5641 10.4111 35.2405 8.50613C35.0953 6.57279 35.5568 4.71428 36.7881 3.19731C39.01 0.804846 42.6943 0.156907 45.4771 1.97219ZM34.4748 30.0385C32.7004 32.3158 31.9275 34.8321 32.1972 37.7003C32.5503 40.4284 34.0064 42.5091 36.0359 44.2777C38.0265 45.797 40.5103 46.433 42.9871 46.1805C45.7206 45.7862 48.0847 44.3493 49.7654 42.1489C51.2235 39.9548 51.9378 37.426 51.4789 34.7852C51.022 32.5747 50.0106 30.7622 48.3821 29.2201C48.2726 29.116 48.1631 29.0118 48.0503 28.9046C46.0251 27.1364 43.4451 26.5391 40.8159 26.6889C38.3659 26.9102 36.0829 28.1983 34.4748 30.0385Z" fill="#B9375E"/>
</svg>
