<svg width="389" height="130" viewBox="0 0 389 130" fill="none" xmlns="http://www.w3.org/2000/svg">
<rect x="1.92035" y="1.92035" width="384.838" height="125.207" rx="12.0797" fill="white"/>
<rect x="1.92035" y="1.92035" width="384.838" height="125.207" rx="12.0797" stroke="black" stroke-width="3.8407"/>
<g filter="url(#filter0_f_245_61)">
<circle cx="72.9787" cy="63.758" r="28.385" fill="black"/>
</g>
<g filter="url(#filter1_f_245_61)">
<circle cx="72.9787" cy="63.758" r="28.385" fill="black"/>
</g>
<g filter="url(#filter2_f_245_61)">
<circle cx="72.9787" cy="63.758" r="28.385" fill="black"/>
</g>
<g filter="url(#filter3_f_245_61)">
<circle cx="72.9787" cy="63.758" r="28.385" fill="black"/>
</g>
<circle cx="72.9766" cy="63.7588" r="29.9619" fill="white"/>
<path d="M159.06 81.9965C156.799 81.9965 154.767 81.6032 152.964 80.8166C151.194 79.9973 149.801 78.8829 148.785 77.4737C147.769 76.0316 147.245 74.3765 147.212 72.5084H151.981C152.145 74.1143 152.8 75.4745 153.947 76.5888C155.127 77.6703 156.831 78.2111 159.06 78.2111C161.19 78.2111 162.862 77.6867 164.075 76.6379C165.32 75.5564 165.943 74.1799 165.943 72.5084C165.943 71.1975 165.582 70.1323 164.861 69.313C164.14 68.4936 163.239 67.8709 162.157 67.4448C161.076 67.0188 159.617 66.5599 157.782 66.0683C155.521 65.4784 153.702 64.8885 152.325 64.2985C150.981 63.7086 149.818 62.7909 148.835 61.5455C147.884 60.2673 147.409 58.5631 147.409 56.4328C147.409 54.5647 147.884 52.9096 148.835 51.4675C149.785 50.0255 151.112 48.9112 152.817 48.1246C154.554 47.338 156.537 46.9447 158.765 46.9447C161.977 46.9447 164.599 47.7477 166.631 49.3536C168.696 50.9596 169.859 53.0899 170.121 55.7445H165.205C165.041 54.4336 164.353 53.2865 163.14 52.3033C161.928 51.2873 160.322 50.7793 158.323 50.7793C156.455 50.7793 154.931 51.2709 153.751 52.2541C152.571 53.2046 151.981 54.5483 151.981 56.2853C151.981 57.5307 152.325 58.5467 153.013 59.3333C153.734 60.1199 154.603 60.7262 155.619 61.1522C156.668 61.5455 158.126 62.0044 159.994 62.5288C162.256 63.1515 164.075 63.7742 165.451 64.3969C166.828 64.9868 168.007 65.9209 168.991 67.199C169.974 68.4444 170.465 70.1487 170.465 72.3118C170.465 73.9832 170.023 75.5564 169.138 77.0312C168.253 78.506 166.942 79.7023 165.205 80.62C163.468 81.5376 161.42 81.9965 159.06 81.9965ZM201.629 67.1499C201.629 68.002 201.58 68.9033 201.482 69.8537H179.949C180.113 72.5084 181.014 74.5896 182.653 76.0972C184.325 77.572 186.34 78.3094 188.7 78.3094C190.634 78.3094 192.239 77.867 193.518 76.9821C194.829 76.0644 195.746 74.8518 196.271 73.3442H201.088C200.367 75.9333 198.925 78.0472 196.762 79.6859C194.599 81.2918 191.912 82.0948 188.7 82.0948C186.144 82.0948 183.849 81.5212 181.817 80.3742C179.818 79.2271 178.245 77.6048 177.098 75.5072C175.951 73.3769 175.377 70.9189 175.377 68.1331C175.377 65.3473 175.934 62.9057 177.049 60.8081C178.163 58.7106 179.72 57.1047 181.719 55.9904C183.751 54.8433 186.078 54.2697 188.7 54.2697C191.256 54.2697 193.518 54.8269 195.484 55.9412C197.451 57.0555 198.958 58.5959 200.007 60.5623C201.088 62.496 201.629 64.6918 201.629 67.1499ZM197.008 66.2158C197.008 64.5116 196.631 63.0531 195.877 61.8405C195.124 60.5951 194.091 59.661 192.78 59.0383C191.502 58.3828 190.076 58.0551 188.503 58.0551C186.242 58.0551 184.308 58.7761 182.702 60.2182C181.129 61.6602 180.228 63.6595 179.998 66.2158H197.008ZM220.66 54.2206C223.938 54.2206 226.592 55.2202 228.624 57.2194C230.656 59.1858 231.672 62.0371 231.672 65.7734V81.6523H227.248V66.4125C227.248 63.725 226.576 61.6766 225.232 60.2673C223.888 58.8253 222.053 58.1043 219.726 58.1043C217.366 58.1043 215.482 58.8417 214.073 60.3165C212.696 61.7913 212.008 63.938 212.008 66.7566V81.6523H207.534V54.7122H212.008V58.5467C212.893 57.1702 214.089 56.1051 215.597 55.3513C217.137 54.5975 218.825 54.2206 220.66 54.2206ZM244.437 58.3992V74.2782C244.437 75.5892 244.715 76.5232 245.273 77.0804C245.83 77.6048 246.797 77.867 248.173 77.867H251.467V81.6523H247.436C244.945 81.6523 243.077 81.0788 241.831 79.9317C240.586 78.7846 239.963 76.9001 239.963 74.2782V58.3992H236.473V54.7122H239.963V47.928H244.437V54.7122H251.467V58.3992H244.437ZM259.198 50.3368C258.346 50.3368 257.625 50.0419 257.035 49.452C256.445 48.862 256.15 48.141 256.15 47.2889C256.15 46.4367 256.445 45.7157 257.035 45.1258C257.625 44.5359 258.346 44.2409 259.198 44.2409C260.017 44.2409 260.705 44.5359 261.263 45.1258C261.852 45.7157 262.147 46.4367 262.147 47.2889C262.147 48.141 261.852 48.862 261.263 49.452C260.705 50.0419 260.017 50.3368 259.198 50.3368ZM261.361 54.7122V81.6523H256.887V54.7122H261.361ZM293.566 67.1499C293.566 68.002 293.517 68.9033 293.418 69.8537H271.886C272.05 72.5084 272.951 74.5896 274.59 76.0972C276.261 77.572 278.277 78.3094 280.637 78.3094C282.57 78.3094 284.176 77.867 285.454 76.9821C286.765 76.0644 287.683 74.8518 288.207 73.3442H293.025C292.304 75.9333 290.862 78.0472 288.699 79.6859C286.536 81.2918 283.848 82.0948 280.637 82.0948C278.08 82.0948 275.786 81.5212 273.754 80.3742C271.755 79.2271 270.182 77.6048 269.035 75.5072C267.887 73.3769 267.314 70.9189 267.314 68.1331C267.314 65.3473 267.871 62.9057 268.985 60.8081C270.1 58.7106 271.657 57.1047 273.656 55.9904C275.688 54.8433 278.015 54.2697 280.637 54.2697C283.193 54.2697 285.454 54.8269 287.421 55.9412C289.387 57.0555 290.895 58.5959 291.944 60.5623C293.025 62.496 293.566 64.6918 293.566 67.1499ZM288.945 66.2158C288.945 64.5116 288.568 63.0531 287.814 61.8405C287.06 60.5951 286.028 59.661 284.717 59.0383C283.439 58.3828 282.013 58.0551 280.44 58.0551C278.179 58.0551 276.245 58.7761 274.639 60.2182C273.066 61.6602 272.164 63.6595 271.935 66.2158H288.945ZM312.597 54.2206C315.874 54.2206 318.529 55.2202 320.561 57.2194C322.593 59.1858 323.609 62.0371 323.609 65.7734V81.6523H319.184V66.4125C319.184 63.725 318.513 61.6766 317.169 60.2673C315.825 58.8253 313.99 58.1043 311.663 58.1043C309.303 58.1043 307.419 58.8417 306.009 60.3165C304.633 61.7913 303.945 63.938 303.945 66.7566V81.6523H299.471V54.7122H303.945V58.5467C304.829 57.1702 306.026 56.1051 307.533 55.3513C309.074 54.5975 310.762 54.2206 312.597 54.2206ZM336.374 58.3992V74.2782C336.374 75.5892 336.652 76.5232 337.209 77.0804C337.766 77.6048 338.733 77.867 340.11 77.867H343.404V81.6523H339.372C336.882 81.6523 335.013 81.0788 333.768 79.9317C332.523 78.7846 331.9 76.9001 331.9 74.2782V58.3992H328.409V54.7122H331.9V47.928H336.374V54.7122H343.404V58.3992H336.374Z" fill="black"/>
<defs>
<filter id="filter0_f_245_61" x="22.5165" y="13.2958" width="100.924" height="100.924" filterUnits="userSpaceOnUse" color-interpolation-filters="sRGB">
<feFlood flood-opacity="0" result="BackgroundImageFix"/>
<feBlend mode="normal" in="SourceGraphic" in2="BackgroundImageFix" result="shape"/>
<feGaussianBlur stdDeviation="11.0386" result="effect1_foregroundBlur_245_61"/>
</filter>
<filter id="filter1_f_245_61" x="22.5165" y="13.2958" width="100.924" height="100.924" filterUnits="userSpaceOnUse" color-interpolation-filters="sRGB">
<feFlood flood-opacity="0" result="BackgroundImageFix"/>
<feBlend mode="normal" in="SourceGraphic" in2="BackgroundImageFix" result="shape"/>
<feGaussianBlur stdDeviation="11.0386" result="effect1_foregroundBlur_245_61"/>
</filter>
<filter id="filter2_f_245_61" x="22.5165" y="13.2958" width="100.924" height="100.924" filterUnits="userSpaceOnUse" color-interpolation-filters="sRGB">
<feFlood flood-opacity="0" result="BackgroundImageFix"/>
<feBlend mode="normal" in="SourceGraphic" in2="BackgroundImageFix" result="shape"/>
<feGaussianBlur stdDeviation="11.0386" result="effect1_foregroundBlur_245_61"/>
</filter>
<filter id="filter3_f_245_61" x="22.5165" y="13.2958" width="100.924" height="100.924" filterUnits="userSpaceOnUse" color-interpolation-filters="sRGB">
<feFlood flood-opacity="0" result="BackgroundImageFix"/>
<feBlend mode="normal" in="SourceGraphic" in2="BackgroundImageFix" result="shape"/>
<feGaussianBlur stdDeviation="11.0386" result="effect1_foregroundBlur_245_61"/>
</filter>
</defs>
</svg>
