<svg width="910" height="182" viewBox="0 0 910 182" fill="none" xmlns="http://www.w3.org/2000/svg">
<path d="M314.16 76.376C315.099 75.9493 316.549 75.48 318.512 74.968C320.56 74.3707 322.608 74.072 324.656 74.072C328.24 74.072 331.227 74.6267 333.616 75.736C336.005 76.76 337.456 78.296 337.968 80.344C338.907 83.8427 339.76 87.128 340.528 90.2C341.381 93.1867 342.192 96.088 342.96 98.904C343.728 101.635 344.453 104.365 345.136 107.096C345.904 109.827 346.629 112.685 347.312 115.672H347.952C348.72 110.467 349.403 105.517 350 100.824C350.597 96.0453 351.152 91.3947 351.664 86.872C352.176 82.264 352.688 77.7413 353.2 73.304C353.712 68.7813 354.224 64.216 354.736 59.608C357.893 57.816 361.264 56.92 364.848 56.92C368.005 56.92 370.736 57.6027 373.04 58.968C375.344 60.3333 376.496 62.6373 376.496 65.88C376.496 67.7573 376.283 70.4453 375.856 73.944C375.515 77.3573 375.003 81.1973 374.32 85.464C373.723 89.7307 372.997 94.2107 372.144 98.904C371.291 103.597 370.395 108.077 369.456 112.344C368.517 116.611 367.536 120.493 366.512 123.992C365.573 127.405 364.677 130.051 363.824 131.928C362.544 133.123 360.453 134.104 357.552 134.872C354.651 135.64 351.664 136.024 348.592 136.024C344.581 136.024 341.168 135.512 338.352 134.488C335.621 133.379 333.957 131.843 333.36 129.88C332.251 126.467 331.056 122.413 329.776 117.72C328.496 113.027 327.131 107.864 325.68 102.232C324.485 107.779 323.248 113.197 321.968 118.488C320.688 123.779 319.536 128.259 318.512 131.928C317.232 133.123 315.312 134.104 312.752 134.872C310.192 135.64 307.376 136.024 304.304 136.024C300.464 136.024 296.965 135.512 293.808 134.488C290.736 133.379 288.731 131.843 287.792 129.88C287.024 128.344 286.171 126.083 285.232 123.096C284.379 120.024 283.483 116.568 282.544 112.728C281.605 108.803 280.624 104.579 279.6 100.056C278.661 95.5333 277.765 91.0107 276.912 86.488C276.144 81.9653 275.419 77.5707 274.736 73.304C274.053 68.952 273.541 64.984 273.2 61.4C274.395 60.2907 276.059 59.2667 278.192 58.328C280.325 57.3893 282.629 56.92 285.104 56.92C288.347 56.92 290.992 57.6453 293.04 59.096C295.173 60.4613 296.496 62.808 297.008 66.136C298.373 74.84 299.483 82.0933 300.336 87.896C301.275 93.6987 302 98.4773 302.512 102.232C303.109 105.901 303.536 108.76 303.792 110.808C304.048 112.856 304.304 114.477 304.56 115.672H305.2C305.968 112.259 306.693 109.101 307.376 106.2C308.059 103.299 308.741 100.397 309.424 97.496C310.192 94.5093 310.96 91.352 311.728 88.024C312.496 84.6107 313.307 80.728 314.16 76.376ZM418.802 137.048C413.767 137.048 409.074 136.365 404.722 135C400.455 133.549 396.701 131.416 393.458 128.6C390.301 125.784 387.783 122.243 385.906 117.976C384.114 113.709 383.218 108.717 383.218 103C383.218 97.368 384.114 92.5467 385.906 88.536C387.783 84.44 390.215 81.112 393.202 78.552C396.189 75.9067 399.602 73.9867 403.442 72.792C407.282 71.512 411.207 70.872 415.218 70.872C419.741 70.872 423.837 71.5547 427.506 72.92C431.261 74.2853 434.461 76.1627 437.106 78.552C439.837 80.9413 441.927 83.8 443.378 87.128C444.914 90.456 445.682 94.0827 445.682 98.008C445.682 100.909 444.871 103.128 443.25 104.664C441.629 106.2 439.367 107.181 436.466 107.608L404.85 112.344C405.789 115.16 407.709 117.293 410.61 118.744C413.511 120.109 416.839 120.792 420.594 120.792C424.093 120.792 427.378 120.365 430.45 119.512C433.607 118.573 436.167 117.507 438.13 116.312C439.495 117.165 440.647 118.36 441.586 119.896C442.525 121.432 442.994 123.053 442.994 124.76C442.994 128.6 441.202 131.459 437.618 133.336C434.887 134.787 431.815 135.768 428.402 136.28C424.989 136.792 421.789 137.048 418.802 137.048ZM415.218 86.744C413.17 86.744 411.378 87.0853 409.842 87.768C408.391 88.4507 407.197 89.3467 406.258 90.456C405.319 91.48 404.594 92.6747 404.082 94.04C403.655 95.32 403.399 96.6427 403.314 98.008L425.202 94.424C424.946 92.7173 424.007 91.0107 422.386 89.304C420.765 87.5973 418.375 86.744 415.218 86.744ZM456.412 51.672C457.265 51.416 458.631 51.16 460.508 50.904C462.385 50.5627 464.305 50.392 466.268 50.392C468.145 50.392 469.809 50.52 471.26 50.776C472.796 51.032 474.076 51.544 475.1 52.312C476.124 53.08 476.892 54.1467 477.404 55.512C477.916 56.792 478.172 58.4987 478.172 60.632V73.176C480.305 72.3227 482.311 71.7253 484.188 71.384C486.151 71.0427 488.284 70.872 490.588 70.872C494.684 70.872 498.567 71.5973 502.236 73.048C505.905 74.4987 509.148 76.632 511.964 79.448C514.78 82.1787 516.999 85.592 518.62 89.688C520.241 93.784 521.052 98.52 521.052 103.896C521.052 109.443 520.199 114.307 518.492 118.488C516.871 122.584 514.567 125.997 511.58 128.728C508.593 131.459 504.924 133.549 500.572 135C496.305 136.365 491.569 137.048 486.364 137.048C480.732 137.048 475.953 136.365 472.028 135C468.103 133.72 464.775 132.099 462.044 130.136C458.289 127.491 456.412 124.077 456.412 119.896V51.672ZM486.364 119.896C490.289 119.896 493.319 118.573 495.452 115.928C497.671 113.197 498.78 109.187 498.78 103.896C498.78 98.52 497.671 94.5093 495.452 91.864C493.233 89.2187 490.247 87.896 486.492 87.896C484.785 87.896 483.292 88.0667 482.012 88.408C480.817 88.7493 479.495 89.2613 478.044 89.944V117.848C478.983 118.445 480.092 118.957 481.372 119.384C482.737 119.725 484.401 119.896 486.364 119.896ZM566.91 76.376C567.849 75.9493 569.299 75.48 571.262 74.968C573.31 74.3707 575.358 74.072 577.406 74.072C580.99 74.072 583.977 74.6267 586.366 75.736C588.755 76.76 590.206 78.296 590.718 80.344C591.657 83.8427 592.51 87.128 593.278 90.2C594.131 93.1867 594.942 96.088 595.71 98.904C596.478 101.635 597.203 104.365 597.886 107.096C598.654 109.827 599.379 112.685 600.062 115.672H600.702C601.47 110.467 602.153 105.517 602.75 100.824C603.347 96.0453 603.902 91.3947 604.414 86.872C604.926 82.264 605.438 77.7413 605.95 73.304C606.462 68.7813 606.974 64.216 607.486 59.608C610.643 57.816 614.014 56.92 617.598 56.92C620.755 56.92 623.486 57.6027 625.79 58.968C628.094 60.3333 629.246 62.6373 629.246 65.88C629.246 67.7573 629.033 70.4453 628.606 73.944C628.265 77.3573 627.753 81.1973 627.07 85.464C626.473 89.7307 625.747 94.2107 624.894 98.904C624.041 103.597 623.145 108.077 622.206 112.344C621.267 116.611 620.286 120.493 619.262 123.992C618.323 127.405 617.427 130.051 616.574 131.928C615.294 133.123 613.203 134.104 610.302 134.872C607.401 135.64 604.414 136.024 601.342 136.024C597.331 136.024 593.918 135.512 591.102 134.488C588.371 133.379 586.707 131.843 586.11 129.88C585.001 126.467 583.806 122.413 582.526 117.72C581.246 113.027 579.881 107.864 578.43 102.232C577.235 107.779 575.998 113.197 574.718 118.488C573.438 123.779 572.286 128.259 571.262 131.928C569.982 133.123 568.062 134.104 565.502 134.872C562.942 135.64 560.126 136.024 557.054 136.024C553.214 136.024 549.715 135.512 546.558 134.488C543.486 133.379 541.481 131.843 540.542 129.88C539.774 128.344 538.921 126.083 537.982 123.096C537.129 120.024 536.233 116.568 535.294 112.728C534.355 108.803 533.374 104.579 532.35 100.056C531.411 95.5333 530.515 91.0107 529.662 86.488C528.894 81.9653 528.169 77.5707 527.486 73.304C526.803 68.952 526.291 64.984 525.95 61.4C527.145 60.2907 528.809 59.2667 530.942 58.328C533.075 57.3893 535.379 56.92 537.854 56.92C541.097 56.92 543.742 57.6453 545.79 59.096C547.923 60.4613 549.246 62.808 549.758 66.136C551.123 74.84 552.233 82.0933 553.086 87.896C554.025 93.6987 554.75 98.4773 555.262 102.232C555.859 105.901 556.286 108.76 556.542 110.808C556.798 112.856 557.054 114.477 557.31 115.672H557.95C558.718 112.259 559.443 109.101 560.126 106.2C560.809 103.299 561.491 100.397 562.174 97.496C562.942 94.5093 563.71 91.352 564.478 88.024C565.246 84.6107 566.057 80.728 566.91 76.376ZM671.552 137.048C666.517 137.048 661.824 136.365 657.472 135C653.205 133.549 649.451 131.416 646.208 128.6C643.051 125.784 640.533 122.243 638.656 117.976C636.864 113.709 635.968 108.717 635.968 103C635.968 97.368 636.864 92.5467 638.656 88.536C640.533 84.44 642.965 81.112 645.952 78.552C648.939 75.9067 652.352 73.9867 656.192 72.792C660.032 71.512 663.957 70.872 667.968 70.872C672.491 70.872 676.587 71.5547 680.256 72.92C684.011 74.2853 687.211 76.1627 689.856 78.552C692.587 80.9413 694.677 83.8 696.128 87.128C697.664 90.456 698.432 94.0827 698.432 98.008C698.432 100.909 697.621 103.128 696 104.664C694.379 106.2 692.117 107.181 689.216 107.608L657.6 112.344C658.539 115.16 660.459 117.293 663.36 118.744C666.261 120.109 669.589 120.792 673.344 120.792C676.843 120.792 680.128 120.365 683.2 119.512C686.357 118.573 688.917 117.507 690.88 116.312C692.245 117.165 693.397 118.36 694.336 119.896C695.275 121.432 695.744 123.053 695.744 124.76C695.744 128.6 693.952 131.459 690.368 133.336C687.637 134.787 684.565 135.768 681.152 136.28C677.739 136.792 674.539 137.048 671.552 137.048ZM667.968 86.744C665.92 86.744 664.128 87.0853 662.592 87.768C661.141 88.4507 659.947 89.3467 659.008 90.456C658.069 91.48 657.344 92.6747 656.832 94.04C656.405 95.32 656.149 96.6427 656.064 98.008L677.952 94.424C677.696 92.7173 676.757 91.0107 675.136 89.304C673.515 87.5973 671.125 86.744 667.968 86.744ZM735.53 121.176C736.981 121.176 738.559 121.048 740.266 120.792C742.058 120.451 743.381 120.024 744.234 119.512V109.272L735.018 110.04C732.629 110.211 730.666 110.723 729.13 111.576C727.594 112.429 726.826 113.709 726.826 115.416C726.826 117.123 727.466 118.531 728.746 119.64C730.111 120.664 732.373 121.176 735.53 121.176ZM734.506 70.872C739.114 70.872 743.295 71.3413 747.05 72.28C750.89 73.2187 754.133 74.6693 756.778 76.632C759.509 78.5093 761.599 80.9413 763.05 83.928C764.501 86.8293 765.226 90.2853 765.226 94.296V122.968C765.226 125.187 764.586 127.021 763.306 128.472C762.111 129.837 760.661 131.032 758.954 132.056C753.407 135.384 745.599 137.048 735.53 137.048C731.007 137.048 726.911 136.621 723.242 135.768C719.658 134.915 716.543 133.635 713.898 131.928C711.338 130.221 709.333 128.045 707.882 125.4C706.517 122.755 705.834 119.683 705.834 116.184C705.834 110.296 707.583 105.773 711.082 102.616C714.581 99.4587 719.999 97.496 727.338 96.728L744.106 94.936V94.04C744.106 91.5653 742.997 89.816 740.778 88.792C738.645 87.6827 735.53 87.128 731.434 87.128C728.191 87.128 725.034 87.4693 721.962 88.152C718.89 88.8347 716.117 89.688 713.642 90.712C712.533 89.944 711.594 88.792 710.826 87.256C710.058 85.6347 709.674 83.9707 709.674 82.264C709.674 80.0453 710.186 78.296 711.21 77.016C712.319 75.6507 713.983 74.4987 716.202 73.56C718.677 72.6213 721.578 71.9387 724.906 71.512C728.319 71.0853 731.519 70.872 734.506 70.872ZM818.631 133.336C817.436 134.275 815.687 135.043 813.383 135.64C811.079 136.237 808.476 136.536 805.575 136.536C802.247 136.536 799.346 136.109 796.871 135.256C794.482 134.403 792.818 133.037 791.879 131.16C791.111 129.709 790.172 127.704 789.063 125.144C788.039 122.499 786.93 119.597 785.735 116.44C784.54 113.197 783.303 109.741 782.023 106.072C780.743 102.403 779.506 98.776 778.311 95.192C777.202 91.608 776.178 88.152 775.239 84.824C774.3 81.496 773.532 78.552 772.935 75.992C774.13 74.7973 775.708 73.7733 777.671 72.92C779.719 71.9813 781.938 71.512 784.327 71.512C787.314 71.512 789.746 72.152 791.623 73.432C793.586 74.6267 795.036 76.9307 795.975 80.344L800.967 99.928C801.906 103.768 802.802 107.267 803.655 110.424C804.508 113.496 805.148 115.885 805.575 117.592H806.215C807.836 111.277 809.543 104.28 811.335 96.6C813.127 88.92 814.748 81.368 816.199 73.944C817.65 73.176 819.271 72.5787 821.063 72.152C822.94 71.7253 824.732 71.512 826.439 71.512C829.426 71.512 831.943 72.152 833.991 73.432C836.039 74.712 837.063 76.9307 837.063 80.088C837.063 81.4533 836.722 83.4587 836.039 86.104C835.442 88.664 834.631 91.608 833.607 94.936C832.668 98.1787 831.516 101.635 830.151 105.304C828.871 108.973 827.548 112.557 826.183 116.056C824.818 119.555 823.452 122.84 822.087 125.912C820.807 128.899 819.655 131.373 818.631 133.336ZM879.052 137.048C874.017 137.048 869.324 136.365 864.972 135C860.705 133.549 856.951 131.416 853.708 128.6C850.551 125.784 848.033 122.243 846.156 117.976C844.364 113.709 843.468 108.717 843.468 103C843.468 97.368 844.364 92.5467 846.156 88.536C848.033 84.44 850.465 81.112 853.452 78.552C856.439 75.9067 859.852 73.9867 863.692 72.792C867.532 71.512 871.457 70.872 875.468 70.872C879.991 70.872 884.087 71.5547 887.756 72.92C891.511 74.2853 894.711 76.1627 897.356 78.552C900.087 80.9413 902.177 83.8 903.628 87.128C905.164 90.456 905.932 94.0827 905.932 98.008C905.932 100.909 905.121 103.128 903.5 104.664C901.879 106.2 899.617 107.181 896.716 107.608L865.1 112.344C866.039 115.16 867.959 117.293 870.86 118.744C873.761 120.109 877.089 120.792 880.844 120.792C884.343 120.792 887.628 120.365 890.7 119.512C893.857 118.573 896.417 117.507 898.38 116.312C899.745 117.165 900.897 118.36 901.836 119.896C902.775 121.432 903.244 123.053 903.244 124.76C903.244 128.6 901.452 131.459 897.868 133.336C895.137 134.787 892.065 135.768 888.652 136.28C885.239 136.792 882.039 137.048 879.052 137.048ZM875.468 86.744C873.42 86.744 871.628 87.0853 870.092 87.768C868.641 88.4507 867.447 89.3467 866.508 90.456C865.569 91.48 864.844 92.6747 864.332 94.04C863.905 95.32 863.649 96.6427 863.564 98.008L885.452 94.424C885.196 92.7173 884.257 91.0107 882.636 89.304C881.015 87.5973 878.625 86.744 875.468 86.744Z" fill="white"/>
<path d="M100.152 23.5535C103.721 14.4112 114.569 7 124.383 7H242L205.698 100.015C202.13 109.157 191.281 116.568 181.468 116.568H81.6197C71.8058 116.568 66.7426 109.157 70.3107 100.015L100.152 23.5535Z" fill="#221DFF"/>
<path d="M33.9697 81.8541C37.3085 72.6256 47.9708 65.1445 57.7847 65.1445H157.633C167.446 65.1445 172.695 72.6256 169.357 81.8541L141.432 159.036C138.093 168.265 127.431 175.746 117.617 175.746H-0.000108401L33.9697 81.8541Z" fill="#FF31FA"/>
<path d="M84.3757 64.9609H159.272C169.086 64.9609 174.149 72.3722 170.581 81.5144L156.897 116.577H82.0002C72.1863 116.577 67.1231 109.166 70.6912 100.024L84.3757 64.9609Z" fill="#8733FF"/>
</svg>
