<svg width="242" height="169" viewBox="0 0 242 169" fill="none" xmlns="http://www.w3.org/2000/svg">
<path d="M100.152 16.5535C103.721 7.41123 114.569 0 124.383 0H242L205.698 93.0147C202.13 102.157 191.281 109.568 181.468 109.568H81.6197C71.8058 109.568 66.7426 102.157 70.3107 93.0147L100.152 16.5535Z" fill="#221DFF"/>
<path d="M33.9697 74.8541C37.3085 65.6256 47.9708 58.1445 57.7847 58.1445H157.633C167.446 58.1445 172.695 65.6256 169.357 74.8541L141.432 152.036C138.093 161.265 127.431 168.746 117.617 168.746H-0.000108401L33.9697 74.8541Z" fill="#FF31FA"/>
<path d="M84.3757 57.9609H159.272C169.086 57.9609 174.149 65.3722 170.581 74.5144L156.897 109.577H82.0002C72.1863 109.577 67.1231 102.166 70.6912 93.0237L84.3757 57.9609Z" fill="#8733FF"/>
</svg>
